<?xml version="1.0" standalone="no"?>
<!DOCTYPE svg PUBLIC "-//W3C//DTD SVG 20010904//EN"
 "http://www.w3.org/TR/2001/REC-SVG-20010904/DTD/svg10.dtd">
<svg version="1.0" xmlns="http://www.w3.org/2000/svg"
 width="920.000000pt" height="1024.000000pt" viewBox="0 0 920.000000 1024.000000"
 preserveAspectRatio="xMidYMid meet" >

<g transform="translate(0.000000,1024.000000) scale(0.100000,-0.100000)"
fill="#fff" stroke="none">
<path d="M2111 9125 c0 -11 4 -29 9 -40 l9 -20 0 20 c0 11 -4 29 -9 40 l-9 20
0 -20z"/>
<path d="M2116 9051 c-4 -7 -5 -15 -2 -18 9 -9 19 4 14 18 -4 11 -6 11 -12 0z"/>
<path d="M2222 8860 c0 -14 2 -19 5 -12 2 6 2 18 0 25 -3 6 -5 1 -5 -13z"/>
<path d="M2141 8814 c0 -11 3 -14 6 -6 3 7 2 16 -1 19 -3 4 -6 -2 -5 -13z"/>
<path d="M2226 8782 c-3 -6 -1 -14 5 -17 15 -10 25 3 12 16 -7 7 -13 7 -17 1z"/>
<path d="M2161 8731 c-1 -25 -5 -32 -16 -27 -8 3 -15 1 -15 -4 0 -6 5 -10 12
-10 6 0 20 -7 30 -17 17 -15 18 -15 18 6 0 14 -4 20 -12 15 -8 -5 -9 -2 -5 9
3 9 2 27 -3 39 -8 21 -9 20 -9 -11z"/>
<path d="M2125 8730 c-3 -5 -1 -10 4 -10 6 0 11 5 11 10 0 6 -2 10 -4 10 -3 0
-8 -4 -11 -10z"/>
<path d="M2200 8719 c0 -15 7 -40 15 -55 19 -37 19 -11 0 41 -12 34 -14 36
-15 14z"/>
<path d="M2244 8725 c-4 -10 -2 -26 4 -36 7 -10 12 -28 12 -39 0 -11 5 -20 11
-20 7 0 9 10 4 28 -3 15 -8 37 -9 49 -3 31 -14 40 -22 18z"/>
<path d="M2300 8660 c0 -5 5 -10 11 -10 5 0 7 5 4 10 -3 6 -8 10 -11 10 -2 0
-4 -4 -4 -10z"/>
<path d="M2170 8628 c0 -38 14 -78 26 -78 17 0 9 43 -12 75 -11 16 -14 16 -14
3z"/>
<path d="M2152 8605 c0 -16 2 -22 5 -12 2 9 2 23 0 30 -3 6 -5 -1 -5 -18z"/>
<path d="M2263 8606 c4 -10 7 -24 7 -32 0 -8 4 -14 9 -14 11 0 1 49 -12 57 -7
4 -8 0 -4 -11z"/>
<path d="M2220 8571 c0 -6 5 -13 10 -16 6 -3 10 1 10 9 0 9 -4 16 -10 16 -5 0
-10 -4 -10 -9z"/>
<path d="M2110 8524 c0 -8 5 -12 10 -9 6 4 8 11 5 16 -9 14 -15 11 -15 -7z"/>
<path d="M2190 8531 c0 -25 24 -111 32 -111 4 0 8 -4 8 -10 0 -5 -9 -10 -20
-10 -11 0 -20 -4 -20 -10 0 -5 8 -10 18 -10 14 0 14 -2 3 -9 -13 -8 -13 -12 0
-27 12 -16 12 -17 -1 -10 -9 4 -8 1 3 -7 17 -14 25 -53 8 -43 -4 3 -7 -11 -4
-32 2 -27 1 -33 -7 -22 -9 13 -10 13 -10 0 0 -8 5 -22 10 -30 9 -13 10 -13 10
0 1 9 6 5 14 -10 8 -14 12 -28 10 -32 -3 -5 -2 -13 2 -20 4 -7 9 -24 10 -38 2
-14 6 -35 8 -46 3 -12 0 -27 -8 -33 -16 -14 -18 -12 -36 46 -7 23 -19 44 -26
47 -11 4 -11 0 -2 -22 7 -15 16 -32 20 -38 11 -15 19 -159 9 -148 -5 5 -14 27
-21 49 -14 44 -40 87 -40 67 0 -8 5 -22 11 -33 5 -11 9 -28 7 -37 -3 -11 -13
3 -27 36 -26 58 -36 64 -21 12 8 -29 7 -38 -10 -54 -19 -19 -19 -19 -30 8 -5
15 -10 36 -10 46 0 10 -5 22 -11 26 -8 5 -10 0 -6 -17 12 -54 19 -164 9 -154
-5 6 -12 19 -15 30 -3 11 -4 2 -1 -20 3 -22 5 -47 6 -55 0 -8 5 -21 10 -27 7
-9 5 -15 -6 -19 -15 -6 -15 -8 -1 -18 18 -13 30 -66 16 -66 -5 0 -11 -12 -13
-27 -3 -25 -5 -22 -18 20 -15 48 -30 62 -30 27 0 -14 -7 -20 -22 -20 -20 0
-20 -1 -4 -19 12 -13 14 -21 6 -26 -6 -4 -8 -16 -5 -28 l6 -22 -19 22 c-11 12
-22 20 -25 16 -3 -3 0 -12 8 -20 20 -19 19 -49 -1 -57 -8 -3 -13 -10 -9 -15 3
-6 12 -8 20 -4 9 3 15 -1 15 -11 0 -9 -4 -16 -9 -16 -11 0 -3 -34 16 -70 7
-14 13 -31 13 -38 0 -7 3 -11 8 -9 4 3 8 -15 9 -41 2 -44 2 -45 -12 -18 -8 15
-17 42 -21 62 -3 19 -10 37 -16 40 -11 7 -1 -41 18 -80 8 -16 14 -37 14 -47 0
-12 5 -16 14 -13 21 8 42 -57 22 -71 -12 -9 -12 -13 0 -30 14 -18 14 -18 14 1
1 11 9 1 22 -26 11 -25 25 -47 29 -48 5 -2 7 -8 3 -13 -3 -5 -1 -9 4 -9 14 0
32 -49 37 -104 6 -58 42 -166 62 -182 7 -6 13 -22 13 -36 0 -14 9 -36 19 -50
11 -13 23 -38 27 -54 3 -16 12 -33 18 -39 15 -12 27 -53 16 -57 -4 -2 -10 -14
-14 -28 -3 -14 -3 -19 0 -12 10 21 19 13 33 -25 7 -21 16 -47 21 -58 43 -101
55 -125 62 -125 4 0 8 -11 8 -25 0 -18 4 -23 15 -19 8 4 15 1 15 -5 0 -6 -5
-11 -11 -11 -6 0 -8 -8 -5 -17 5 -15 3 -14 -10 2 l-16 20 5 -20 c19 -66 19
-75 4 -75 -21 0 -33 20 -17 30 9 5 9 9 1 14 -6 4 -11 4 -11 -1 0 -9 -24 41
-34 70 -3 11 -15 21 -26 24 -11 3 -20 10 -20 15 0 5 5 6 10 3 7 -4 9 2 4 19
-8 35 -44 104 -44 86 0 -8 7 -28 15 -44 17 -33 18 -36 6 -36 -5 0 -17 19 -27
43 -10 23 -20 45 -22 50 -2 4 4 7 13 7 9 0 15 6 12 13 -2 6 -12 11 -21 9 -10
-2 -20 7 -26 23 -14 38 -13 50 6 35 13 -12 14 -10 3 13 -7 15 -17 23 -25 20
-8 -3 -17 3 -20 13 -4 11 -23 57 -44 104 -20 47 -43 108 -50 135 -7 28 -17 54
-21 59 -12 13 -11 36 0 36 5 0 12 -11 15 -25 8 -30 26 -24 26 9 0 12 4 26 9
31 9 11 -6 81 -16 72 -3 -3 -1 -20 5 -36 13 -38 7 -39 -26 -4 l-25 28 7 -28
c5 -21 3 -27 -9 -27 -22 0 -29 -25 -14 -52 7 -13 14 -25 14 -28 0 -3 15 -41
33 -85 18 -44 37 -89 41 -100 5 -11 16 -37 24 -58 9 -20 17 -40 18 -45 1 -4 8
-16 15 -27 8 -11 14 -29 14 -41 0 -12 6 -27 14 -33 8 -7 17 -27 20 -45 8 -42
34 -96 46 -96 5 0 7 -6 4 -14 -3 -8 4 -16 18 -19 13 -4 31 -20 41 -38 21 -38
22 -50 2 -43 -8 4 -15 17 -15 30 0 13 -4 24 -8 24 -4 0 -8 -10 -7 -22 1 -30
37 -128 47 -128 4 0 8 -8 8 -18 0 -10 3 -22 8 -26 4 -4 7 -11 8 -14 1 -10 22
-61 49 -117 13 -27 32 -71 44 -97 11 -26 31 -62 44 -80 14 -18 28 -43 32 -55
3 -13 10 -23 15 -23 4 0 11 -12 15 -27 9 -39 67 -153 77 -153 4 0 8 -6 8 -13
0 -16 58 -134 69 -141 5 -3 21 -30 36 -61 16 -30 35 -55 43 -55 8 0 12 -6 9
-14 -3 -8 1 -20 9 -27 8 -6 18 -25 22 -42 4 -17 14 -33 22 -35 13 -5 13 -3 0
13 -13 17 -13 18 1 13 9 -4 21 -2 27 4 8 8 15 8 26 -1 8 -7 21 -9 28 -5 10 6
11 5 1 -7 -7 -9 -8 -20 -3 -29 5 -8 7 -17 4 -22 -2 -4 4 -12 15 -17 10 -6 22
-22 25 -36 5 -19 12 -25 24 -21 11 3 24 -4 35 -20 14 -18 15 -25 5 -23 -33 4
-39 0 -26 -20 9 -16 15 -17 26 -9 10 9 16 8 23 -3 5 -8 9 -17 9 -21 0 -11 -18
-10 -25 2 -3 5 -12 7 -20 4 -9 -4 -18 1 -22 12 -3 11 -16 32 -27 49 -12 16
-28 43 -36 60 -28 53 -55 95 -62 95 -12 0 -9 -13 7 -34 22 -30 18 -42 -7 -20
l-22 19 15 -25 c9 -14 21 -42 28 -62 7 -22 19 -38 28 -38 14 0 13 3 -1 25 -9
13 -16 30 -16 37 0 7 9 0 20 -17 11 -17 17 -38 14 -51 -8 -30 35 -103 64 -110
14 -4 21 -12 18 -20 -3 -8 6 -21 19 -30 20 -13 23 -20 14 -30 -9 -11 -8 -14 0
-14 7 0 19 -7 27 -15 9 -8 13 -15 11 -15 -2 0 10 -16 27 -34 17 -19 31 -34 33
-32 5 4 -48 100 -66 121 -24 26 -44 65 -37 72 9 9 35 -17 52 -51 8 -17 31 -49
51 -71 26 -29 31 -32 19 -12 -21 35 -15 47 7 14 8 -13 36 -44 61 -70 30 -30
44 -51 40 -61 -4 -11 0 -16 14 -16 19 0 64 -50 68 -76 1 -6 14 -23 28 -37 26
-26 36 -54 14 -41 -7 4 -8 3 -4 -4 4 -6 13 -9 21 -6 9 4 18 -1 21 -12 4 -11
14 -27 22 -36 25 -29 3 -20 -24 10 l-25 27 18 -37 c10 -21 26 -40 36 -44 9 -3
17 -11 17 -17 0 -7 10 -17 23 -22 13 -6 21 -17 19 -28 -2 -9 2 -17 8 -17 5 0
10 -8 10 -18 0 -9 9 -23 20 -29 16 -11 18 -10 14 2 -11 28 2 15 49 -45 26 -33
47 -68 47 -78 1 -19 30 -63 30 -44 0 24 19 11 54 -38 20 -28 30 -50 23 -50 -8
-1 -7 -4 3 -13 8 -7 28 -29 43 -49 15 -21 36 -38 46 -38 24 0 52 -31 34 -37
-14 -5 4 -38 50 -87 15 -17 27 -35 27 -39 0 -12 -25 7 -81 62 -59 59 -75 71
-91 71 -8 0 -22 14 -31 30 -16 27 -17 30 -2 30 9 0 13 5 10 11 -4 6 -14 8 -22
5 -9 -4 -38 18 -79 61 -42 42 -75 67 -91 69 l-25 3 20 -22 c71 -78 75 -82 63
-59 -18 34 3 26 33 -13 22 -28 24 -35 11 -35 -14 0 -12 -5 7 -31 13 -17 28
-38 33 -46 6 -8 26 -31 45 -52 76 -80 92 -102 87 -115 -3 -7 -1 -18 4 -23 7
-7 5 -13 -6 -17 -11 -4 -18 0 -22 12 -2 10 -14 22 -26 27 -12 6 -22 17 -22 25
0 17 -38 60 -54 60 -6 0 -22 17 -37 38 -14 20 -47 55 -74 77 -26 22 -51 49
-54 60 -3 11 -28 45 -56 75 -27 30 -50 58 -50 61 0 4 -7 9 -15 12 -24 10 63
-125 108 -167 29 -27 38 -40 28 -44 -10 -3 -8 -10 10 -24 13 -11 19 -17 12
-14 -6 4 -14 2 -18 -4 -6 -10 6 -14 38 -11 11 2 17 -5 17 -17 0 -11 9 -22 20
-25 11 -3 23 -13 27 -24 4 -10 13 -22 20 -28 17 -14 10 -47 -12 -55 -17 -6
-17 -7 -2 -13 9 -3 17 -13 17 -21 0 -8 9 -18 20 -21 11 -3 20 -13 20 -20 0 -8
8 -19 19 -24 10 -6 24 -24 31 -41 7 -16 17 -30 22 -30 5 0 12 -8 15 -17 4 -10
24 -35 45 -55 21 -20 38 -41 38 -47 0 -6 4 -11 8 -11 13 0 86 -70 79 -76 -3
-3 2 -13 11 -23 9 -9 33 -36 52 -60 19 -24 40 -47 45 -52 45 -39 64 -60 90
-98 16 -24 36 -46 45 -49 19 -7 55 -44 63 -66 4 -9 13 -16 22 -16 8 0 15 -7
15 -15 0 -9 7 -18 16 -22 9 -3 14 -13 11 -24 -4 -14 0 -19 14 -19 11 0 23 -8
26 -17 4 -10 15 -24 25 -31 10 -7 18 -18 18 -24 0 -18 51 -59 82 -65 18 -4 25
-9 18 -13 -9 -5 0 -20 27 -46 22 -22 43 -47 47 -58 4 -11 12 -16 21 -12 8 3
17 1 20 -4 3 -4 0 -10 -7 -12 -9 -3 -8 -9 5 -22 9 -10 22 -14 29 -10 10 6 11
5 1 -8 -16 -18 -7 -28 24 -28 18 0 22 -5 20 -22 -2 -18 4 -24 26 -26 18 -2 27
-9 27 -22 0 -16 61 -80 78 -80 4 0 22 -14 41 -30 18 -17 38 -30 42 -30 5 0 9
-9 9 -19 0 -13 9 -21 30 -26 16 -4 34 -4 39 -1 5 4 17 -16 26 -44 9 -27 21
-50 26 -50 5 0 9 -6 9 -14 0 -8 9 -17 19 -21 12 -4 18 -12 14 -21 -4 -10 3
-14 26 -14 24 0 34 -6 41 -25 5 -14 17 -25 27 -25 12 0 14 -3 6 -11 -13 -13
28 -57 67 -71 17 -5 27 -16 26 -26 0 -10 8 -18 21 -20 12 -2 25 -12 28 -23 4
-10 12 -19 19 -19 7 0 20 -18 29 -40 8 -22 23 -41 31 -41 9 -1 21 -3 26 -4 6
-1 14 -3 19 -4 5 0 11 -11 15 -23 4 -18 8 -20 18 -10 18 18 30 15 23 -7 -4
-14 0 -23 15 -31 11 -6 20 -17 20 -25 0 -8 8 -19 18 -24 9 -6 11 -11 5 -11
-18 0 -16 -30 2 -30 23 0 18 -26 -10 -55 -28 -27 -54 -31 -86 -15 -14 8 -19 7
-19 -1 0 -9 -3 -9 -14 0 -8 6 -37 13 -66 16 -29 2 -60 11 -69 20 -10 8 -21 15
-25 15 -4 0 -18 8 -33 17 -14 10 -33 18 -41 19 -8 2 -18 7 -21 11 -3 5 -17 10
-30 10 -13 1 -32 11 -43 22 -10 12 -26 21 -36 21 -9 0 -26 7 -36 15 -14 11
-23 12 -32 4 -10 -8 -17 -7 -28 4 -8 8 -37 17 -65 21 -27 4 -51 11 -53 16 -2
5 -16 12 -33 15 -59 9 -90 17 -122 31 -17 8 -38 14 -46 14 -9 0 -19 5 -23 11
-3 6 -15 9 -25 6 -10 -3 -22 -1 -25 4 -3 5 -18 9 -34 9 -16 0 -32 5 -36 11 -3
6 -19 9 -35 5 -16 -3 -29 -1 -31 6 -9 26 -168 42 -168 17 0 -6 4 -8 9 -5 4 3
31 0 59 -8 33 -8 55 -9 61 -3 11 11 31 1 31 -17 0 -14 42 -26 86 -26 13 0 24
-3 24 -8 0 -4 -25 -7 -55 -7 -57 1 -91 -9 -58 -17 10 -2 46 -4 81 -3 34 0 62
-3 62 -7 0 -4 -15 -8 -32 -9 l-33 0 35 -17 c19 -9 37 -20 40 -23 3 -4 20 -10
38 -14 50 -10 38 -26 -18 -21 -61 4 -84 -14 -54 -43 23 -21 64 -33 64 -19 0 6
13 -3 29 -20 17 -17 39 -36 51 -42 11 -6 18 -15 15 -20 -3 -4 9 -12 27 -15 39
-9 109 -43 123 -60 23 -28 83 -37 128 -20 10 4 17 3 17 -5 0 -7 8 -9 20 -5 11
3 20 2 20 -3 0 -5 19 -14 43 -21 23 -7 52 -17 65 -22 13 -5 27 -7 32 -4 5 3
15 -1 23 -10 14 -13 57 -22 115 -24 13 -1 22 -7 22 -16 0 -9 9 -15 21 -15 29
0 100 -21 123 -36 10 -7 25 -10 32 -7 8 3 14 0 14 -7 0 -7 6 -10 14 -7 8 3 22
-3 31 -13 9 -10 27 -21 41 -24 13 -4 39 -22 59 -41 23 -23 35 -30 35 -20 0 19
26 20 34 0 3 -9 18 -14 39 -13 40 1 58 -8 51 -26 -4 -10 13 -15 65 -20 39 -4
71 -12 71 -18 0 -5 7 -7 15 -4 9 3 18 -1 21 -9 5 -12 58 -32 77 -27 4 1 7 -5
7 -13 0 -8 6 -15 13 -16 6 0 35 -2 63 -3 27 -2 59 -8 69 -13 10 -6 26 -8 36
-6 13 4 19 0 19 -11 0 -9 8 -16 20 -16 11 0 20 -7 20 -15 0 -9 6 -12 15 -9 8
4 15 2 15 -3 0 -5 8 -10 18 -10 58 1 74 -4 79 -24 4 -15 12 -19 32 -17 14 2
29 7 33 13 4 6 24 -6 47 -29 32 -31 44 -37 64 -32 18 4 34 -1 54 -17 43 -34
71 -48 78 -37 3 5 20 1 38 -10 18 -11 56 -20 89 -22 38 -2 58 -7 58 -15 0 -12
8 -15 52 -17 10 -1 17 -5 15 -10 -3 -10 73 -49 96 -48 9 0 17 -6 17 -14 0 -8
9 -15 20 -15 11 -1 26 -2 33 -3 6 -1 20 -9 30 -19 9 -9 23 -17 30 -17 7 0 20
-9 30 -20 9 -11 26 -20 37 -20 11 0 43 -11 72 -25 28 -14 57 -25 64 -25 7 0
17 -6 21 -13 8 -13 22 -16 91 -23 45 -4 47 -2 32 27 -9 15 -7 21 5 25 8 3 15
13 15 21 0 8 9 17 20 20 11 3 20 11 20 17 0 15 -32 51 -65 72 -18 12 -25 25
-25 49 0 20 -6 35 -15 39 -8 3 -15 14 -15 25 0 11 -9 21 -21 24 -16 4 -20 10
-14 24 4 10 8 27 10 38 1 14 10 21 28 23 25 3 39 22 17 22 -5 0 -10 11 -10 25
0 18 -5 25 -19 25 -22 0 -39 49 -20 60 20 13 2 25 -34 24 -32 -2 -35 0 -33 24
2 14 8 28 15 30 16 5 14 22 -3 22 -19 0 -32 20 -18 29 15 9 27 61 13 61 -6 0
-11 7 -11 15 0 8 -7 15 -15 15 -8 0 -15 9 -15 19 0 11 -5 23 -10 26 -8 5 -8
11 0 20 9 10 6 16 -10 25 -15 8 -19 17 -15 31 4 10 2 19 -2 19 -10 0 -37 88
-34 108 1 6 -3 12 -9 12 -5 0 -10 8 -10 18 0 14 -2 15 -10 2 -6 -9 -10 -10
-10 -3 0 6 5 15 11 19 8 4 7 9 -2 16 -11 7 -11 11 -1 15 6 2 10 9 6 14 -3 5
-7 33 -10 62 -4 54 -20 96 -42 110 -7 5 -10 17 -7 27 4 13 -4 25 -27 42 -18
12 -35 21 -37 18 -2 -3 -11 19 -19 48 -8 28 -18 52 -23 52 -5 0 -9 -5 -9 -11
0 -5 -5 -7 -11 -3 -7 4 -7 10 -1 16 15 15 2 58 -19 58 -11 0 -19 6 -19 14 0 7
-11 21 -25 30 -19 12 -25 25 -25 51 0 19 -5 35 -11 35 -6 0 -8 7 -5 15 6 16
-11 54 -29 67 -5 4 -6 10 -3 14 4 3 -4 24 -18 46 -16 24 -23 47 -19 59 4 11 2
19 -4 19 -6 0 -11 7 -11 15 0 8 -7 15 -15 15 -8 0 -12 6 -9 13 3 8 -2 20 -11
27 -8 7 -15 9 -15 4 0 -10 -27 33 -36 59 -3 9 -13 17 -20 17 -8 0 -14 10 -14
25 0 14 -4 25 -9 25 -5 0 -24 22 -42 50 -31 48 -56 59 -44 19 4 -11 2 -19 -5
-19 -7 0 -8 -6 0 -19 12 -24 13 -31 1 -31 -17 0 -111 172 -111 205 0 6 -9 22
-20 35 -11 13 -20 31 -20 41 0 10 -5 21 -10 24 -6 4 -8 10 -5 15 3 5 -3 17
-14 27 -16 16 -34 53 -36 76 0 4 -5 11 -11 15 -6 4 -15 22 -19 40 -13 63 -34
92 -66 92 -27 0 -29 -2 -23 -28 4 -15 13 -34 20 -43 8 -8 14 -19 14 -24 0 -5
7 -17 17 -27 15 -17 15 -18 -4 -18 -22 0 -53 29 -53 50 0 11 -3 11 -16 -2 -14
-14 -12 -25 26 -124 23 -60 52 -134 65 -164 13 -30 29 -72 35 -92 6 -21 15
-38 20 -38 5 0 12 -15 15 -33 4 -17 12 -39 19 -47 21 -27 58 -101 53 -106 -3
-3 8 -30 24 -61 16 -30 26 -59 23 -64 -3 -6 -1 -16 5 -23 6 -7 12 -28 15 -46
2 -19 8 -36 15 -38 15 -5 14 -59 -1 -65 -10 -3 -10 -7 0 -20 8 -9 11 -21 7
-27 -3 -5 1 -13 11 -17 16 -6 15 -7 -2 -20 -10 -7 -12 -13 -6 -13 11 0 8 -39
-5 -62 -4 -8 -53 12 -53 21 0 4 -18 17 -40 31 -22 14 -40 28 -40 32 0 5 -6 8
-13 8 -7 0 -18 9 -25 20 -7 11 -17 20 -22 20 -6 0 -18 8 -29 17 -30 29 -113
100 -166 143 -69 56 -67 54 -100 75 -36 23 -46 31 -105 84 -24 23 -50 41 -57
41 -7 0 -17 8 -22 19 -11 21 -101 111 -110 111 -4 0 -21 12 -38 27 -67 59 -85
73 -94 73 -6 0 -29 20 -51 45 -23 25 -47 45 -55 45 -7 0 -13 9 -13 20 0 11 -7
20 -15 20 -9 0 -20 11 -25 25 -5 14 -16 25 -24 25 -7 0 -16 7 -20 15 -3 8 -10
15 -17 15 -13 0 -74 62 -71 72 1 3 -12 12 -28 20 -17 7 -30 19 -30 25 0 7 -6
13 -14 13 -8 0 -24 11 -37 25 -13 13 -30 25 -36 25 -7 0 -25 14 -40 31 -16 18
-37 41 -48 51 -11 11 -20 23 -20 29 0 16 -56 69 -73 69 -8 0 -22 7 -31 15 -9
8 -36 31 -59 50 -29 23 -38 35 -27 35 15 0 15 2 4 16 -8 10 -15 12 -17 5 -6
-18 -24 -13 -20 7 1 9 -8 28 -20 42 -35 40 -185 191 -228 231 -21 20 -48 48
-58 63 -11 14 -31 29 -44 33 -14 3 -40 20 -58 38 -17 18 -40 36 -50 40 -18 7
-18 8 -1 12 23 6 22 23 -1 23 -10 0 -28 10 -40 23 -25 26 -30 46 -7 27 17 -14
21 0 4 17 -6 6 -17 22 -23 35 -6 12 -27 28 -46 34 -19 6 -36 16 -38 23 -2 7 3
9 14 4 12 -4 15 -3 10 6 -5 7 -14 10 -22 7 -17 -7 -44 3 -44 15 0 5 9 9 21 9
12 0 17 4 13 11 -3 6 -19 9 -35 5 -27 -5 -48 8 -34 22 3 3 10 0 14 -7 6 -9 11
-10 15 -3 4 7 -10 16 -34 23 -43 13 -51 24 -22 33 13 4 13 4 -3 3 -39 -3 -62
27 -27 36 14 4 13 6 -6 12 -14 5 -21 13 -18 22 4 8 -4 17 -18 23 -14 5 -34 17
-46 27 -11 10 -24 18 -28 19 -20 2 -41 17 -36 25 3 5 10 6 16 3 6 -4 14 0 19
7 6 10 -2 25 -26 49 -18 19 -35 46 -37 60 -2 14 -9 25 -16 25 -8 0 -19 7 -25
16 -7 8 -20 18 -29 22 -10 3 -18 11 -18 17 0 6 5 8 10 5 6 -3 10 -2 10 3 0 5
-10 12 -22 16 -22 5 -22 6 -3 20 20 15 20 15 -2 16 -21 0 -63 46 -63 69 0 6
-11 16 -25 21 -14 5 -25 16 -25 24 0 8 -4 16 -9 18 -4 2 -12 14 -16 27 -4 15
-3 21 3 17 6 -4 8 2 4 16 -3 12 -7 17 -9 11 -3 -8 -10 -6 -24 5 -23 20 -25 36
-3 28 15 -6 15 -4 3 10 -7 9 -23 20 -36 25 -13 5 -23 14 -23 20 0 8 4 8 15 -1
20 -16 19 -6 -1 25 -9 14 -23 25 -30 25 -8 0 -14 4 -14 9 0 5 -26 40 -57 77
-36 41 -53 69 -45 71 6 3 12 9 12 14 0 5 -6 9 -12 9 -18 0 -58 74 -58 107 0
20 -3 24 -9 14 -7 -11 -12 -8 -25 13 -9 14 -23 37 -31 51 -19 31 -10 33 16 3
l20 -23 -15 30 c-8 17 -22 39 -31 50 -16 20 -16 19 -10 -5 l6 -25 -20 24 c-25
27 -27 43 -6 35 20 -8 20 -9 -19 66 -66 128 -107 200 -118 206 -6 4 -6 -1 1
-15 8 -14 8 -21 1 -21 -5 0 -10 4 -10 9 0 9 -61 113 -79 135 -7 8 -14 24 -16
36 -3 18 -2 20 10 10 22 -19 18 0 -14 60 -16 30 -43 83 -60 118 -17 34 -38 62
-46 62 -15 0 -33 27 -38 57 -1 10 -6 24 -11 32 -5 8 -4 16 4 21 14 9 -68 179
-87 179 -13 1 -33 32 -33 52 0 8 4 8 16 -2 15 -12 15 -10 2 21 -34 81 -92 189
-99 184 -10 -6 -22 33 -15 45 9 14 -5 42 -16 35 -6 -4 -14 0 -19 7 -14 22 -10
33 6 19 8 -7 15 -8 15 -2 0 12 -25 33 -32 26 -3 -2 -8 2 -11 11 -4 8 -2 15 3
15 6 0 10 8 9 18 0 10 -3 12 -6 5 -2 -7 -9 -13 -14 -13 -14 0 -11 28 4 33 8 4
7 6 -3 7 -14 1 -64 88 -65 114 -1 6 -11 34 -24 61 -23 50 -42 48 -23 -3 6 -15
14 -43 18 -62 3 -19 15 -47 25 -62 11 -14 19 -33 19 -41 0 -9 5 -19 10 -22 16
-10 12 -35 -5 -29 -11 5 -13 2 -9 -10 4 -10 13 -15 20 -12 8 3 14 1 14 -4 0
-6 -6 -10 -12 -10 -8 -1 -5 -7 6 -15 10 -8 19 -25 19 -39 0 -15 4 -23 10 -19
7 4 8 0 3 -12 -4 -10 -3 -21 2 -24 14 -9 25 -51 14 -51 -5 0 -22 25 -37 55
-16 30 -33 55 -38 55 -5 0 -7 6 -4 14 3 7 -1 23 -8 34 -8 10 -12 22 -9 25 3 2
-4 21 -16 41 -11 20 -20 43 -20 50 0 8 -4 16 -10 18 -5 2 -11 19 -13 38 -2 20
-6 41 -10 47 -4 6 -2 15 4 18 7 5 3 12 -10 21 -19 14 -30 43 -46 124 l-7 35
25 -27 c14 -16 32 -28 39 -28 9 1 7 5 -4 14 -25 19 -24 40 1 26 14 -7 22 -7
26 1 4 6 -2 13 -14 16 -12 3 -21 12 -21 20 0 17 -39 114 -52 128 -6 6 -7 0 -3
-16 5 -19 2 -28 -10 -33 -14 -5 -15 -9 -5 -21 7 -9 10 -19 6 -22 -9 -9 -26 16
-26 39 0 9 -4 20 -10 23 -5 3 -10 16 -10 29 0 12 -5 27 -12 34 -9 9 -4 12 25
12 30 0 35 3 30 17 -4 11 -3 14 5 9 7 -4 12 -14 12 -22 0 -8 5 -14 11 -14 6 0
8 7 5 16 -3 9 -6 22 -6 29 0 8 -13 28 -30 45 -22 22 -30 40 -30 65 0 19 -5 35
-10 35 -6 0 -8 11 -4 25 4 15 2 25 -5 25 -6 0 -8 6 -5 14 3 7 -2 20 -10 29
-19 19 -34 73 -17 63 6 -4 11 -2 11 3 0 6 -7 11 -15 11 -18 0 -20 20 -2 20 7
1 4 6 -7 15 -10 7 -15 18 -11 24 3 6 1 11 -4 11 -6 0 -11 8 -11 18 0 26 -48
170 -49 147 0 -11 6 -42 14 -69 8 -27 13 -51 11 -54 -9 -8 -26 10 -26 28 0 10
-4 22 -10 25 -12 8 -13 -6 -1 -38 5 -13 20 -28 33 -32 20 -6 20 -8 5 -12 -11
-3 -16 -11 -13 -21 2 -9 7 -34 11 -55 5 -31 9 -36 20 -27 10 9 15 6 21 -12 4
-13 8 -25 9 -28 0 -3 3 -10 7 -16 8 -12 1 -24 -14 -24 -4 0 -8 8 -8 17 0 9 -3
13 -6 10 -8 -8 15 -98 29 -112 6 -6 7 -2 2 13 -3 12 -2 22 3 22 12 0 24 -29
16 -41 -3 -5 0 -9 6 -9 7 0 10 -7 6 -15 -3 -8 0 -15 6 -15 18 0 0 -14 -23 -17
-12 -2 -19 2 -18 9 1 7 -1 22 -6 33 -24 62 -54 143 -59 165 -4 14 -25 95 -47
180 -22 85 -51 200 -65 255 -13 55 -28 114 -33 130 -5 17 -12 45 -16 62 -4 18
-15 49 -25 70 -10 21 -14 40 -9 41 6 3 5 10 -2 18 -6 7 -9 21 -5 29 3 8 2 15
-3 15 -5 0 -14 27 -20 60 -16 81 -35 79 -29 -2 5 -64 -5 -114 -21 -104 -7 5
-19 53 -26 101 -5 37 -18 75 -26 75 -5 0 -9 -4 -9 -9z m88 -556 c-3 -3 -9 2
-12 12 -6 14 -5 15 5 6 7 -7 10 -15 7 -18z m15 -22 c4 -3 4 -9 1 -15 -4 -6
-10 -5 -15 3 -7 11 -9 11 -9 1 0 -7 -4 -10 -10 -7 -5 3 -10 13 -10 20 0 13 16
12 43 -2z m-98 -83 c3 -5 1 -10 -4 -10 -6 0 -11 5 -11 10 0 6 2 10 4 10 3 0 8
-4 11 -10z m119 -28 c15 -29 16 -55 3 -68 -4 -4 -7 -12 -7 -18 0 -6 4 -5 9 2
6 10 11 1 18 -27 6 -23 7 -38 2 -35 -5 3 -9 0 -9 -6 0 -6 -4 -9 -8 -6 -4 2
-14 1 -22 -4 -11 -7 -10 -20 9 -77 26 -80 46 -120 54 -106 4 6 2 25 -3 43 -5
18 -7 37 -3 43 3 5 1 12 -6 16 -6 4 -14 21 -17 39 -5 25 -3 32 9 32 14 0 19
-13 31 -76 2 -11 15 -54 29 -95 13 -41 29 -94 36 -119 6 -25 15 -54 18 -64 4
-13 2 -17 -5 -12 -20 12 -13 -12 11 -37 12 -13 28 -22 35 -20 6 3 12 0 12 -6
0 -6 -4 -11 -10 -11 -5 0 -10 -7 -10 -15 0 -8 5 -15 10 -15 6 0 10 -15 10 -32
0 -34 14 -80 49 -161 12 -27 21 -54 20 -60 0 -7 -7 3 -15 22 -17 39 -29 37
-15 -3 6 -14 7 -26 2 -26 -5 0 -17 28 -27 61 -10 34 -24 64 -31 66 -16 6 -17
53 -1 53 6 0 -4 15 -23 33 -29 29 -34 40 -35 83 0 27 -4 60 -8 73 -6 17 -5 22
4 16 8 -5 11 -1 8 11 -2 11 -9 18 -15 17 -6 -1 -14 9 -17 22 -4 14 -13 25 -21
25 -8 0 -15 9 -15 20 0 14 -5 18 -16 13 -12 -4 -15 -2 -12 8 3 8 15 14 27 13
12 0 21 6 21 14 0 9 -6 12 -16 8 -9 -3 -24 -6 -35 -6 -13 0 -19 -7 -19 -21 0
-11 -4 -18 -10 -14 -5 3 -7 12 -4 19 3 8 1 17 -5 21 -6 3 -11 13 -11 21 0 8 5
12 10 9 6 -3 10 -1 10 5 0 6 -7 13 -16 17 -10 4 -12 8 -5 13 8 5 8 14 -2 33
-8 15 -17 24 -20 20 -4 -3 -7 1 -7 10 0 11 5 14 17 10 13 -5 15 -3 8 13 -4 10
-10 32 -13 48 -4 25 -2 27 17 21 24 -7 25 -5 9 46 -8 27 -8 46 -1 62 6 13 7
31 2 45 -12 31 -2 28 15 -6z m-215 -61 c0 -39 -8 -27 -23 33 -6 26 -5 28 8 17
10 -8 16 -28 15 -50z m111 47 c0 -7 3 -24 6 -38 5 -17 3 -22 -3 -15 -15 15
-25 65 -13 65 5 0 10 -6 10 -12z m-40 -59 c0 8 2 12 5 9 7 -7 -5 -38 -14 -38
-10 0 -31 47 -31 68 1 10 9 3 20 -18 11 -19 19 -29 20 -21z m60 -19 c0 -5 -4
-10 -10 -10 -5 0 -10 5 -10 10 0 6 5 10 10 10 6 0 10 -4 10 -10z m50 -20 c0
-5 -4 -10 -10 -10 -5 0 -10 5 -10 10 0 6 5 10 10 10 6 0 10 -4 10 -10z m-160
-15 c7 -9 8 -15 2 -15 -5 0 -12 7 -16 15 -3 8 -4 15 -2 15 2 0 9 -7 16 -15z
m130 -15 c0 -5 -4 -10 -10 -10 -5 0 -10 5 -10 10 0 6 5 10 10 10 6 0 10 -4 10
-10z m-60 -45 c0 -8 -2 -15 -4 -15 -2 0 -6 7 -10 15 -3 8 -1 15 4 15 6 0 10
-7 10 -15z m127 -7 c-3 -8 -6 -5 -6 6 -1 11 2 17 5 13 3 -3 4 -12 1 -19z
m-217 2 c0 -5 -2 -10 -4 -10 -3 0 -8 5 -11 10 -3 6 -1 10 4 10 6 0 11 -4 11
-10z m138 -82 c28 -61 34 -79 37 -110 4 -43 -12 -23 -25 31 -8 36 -16 48 -26
44 -10 -4 -12 0 -8 11 3 9 2 16 -4 16 -5 0 -7 11 -4 25 2 14 6 25 7 25 2 0 12
-19 23 -42z m367 -38 c3 -5 -1 -10 -9 -10 -9 0 -16 5 -16 10 0 6 4 10 9 10 6
0 13 -4 16 -10z m-595 -56 c0 -8 -4 -12 -10 -9 -5 3 -10 10 -10 16 0 5 5 9 10
9 6 0 10 -7 10 -16z m110 6 c0 -5 -4 -10 -10 -10 -5 0 -10 5 -10 10 0 6 5 10
10 10 6 0 10 -4 10 -10z m45 -40 c3 -5 2 -10 -4 -10 -5 0 -13 5 -16 10 -3 6
-2 10 4 10 5 0 13 -4 16 -10z m3 -134 c-2 -14 -9 -4 -21 31 -23 69 -21 89 4
34 11 -25 18 -54 17 -65z m22 50 c0 -6 -7 -2 -15 8 -8 11 -15 25 -15 30 0 6 7
2 15 -8 8 -11 15 -25 15 -30z m107 -6 c-3 -11 -1 -20 4 -20 5 0 9 -4 9 -9 0
-5 -8 -8 -17 -6 -10 1 -17 8 -15 15 1 7 -3 18 -9 26 -9 11 -7 14 11 14 17 0
21 -4 17 -20z m348 10 c3 -5 2 -10 -4 -10 -5 0 -13 5 -16 10 -3 6 -2 10 4 10
5 0 13 -4 16 -10z m-295 -6 c0 -3 -7 -12 -15 -20 -13 -14 -15 -13 -15 5 0 12
6 21 15 21 8 0 15 -3 15 -6z m10 -45 c0 -6 -4 -7 -10 -4 -5 3 -10 11 -10 16 0
6 5 7 10 4 6 -3 10 -11 10 -16z m-210 -19 c0 -5 -4 -10 -10 -10 -5 0 -10 5
-10 10 0 6 5 10 10 10 6 0 10 -4 10 -10z m225 -10 c3 -5 1 -10 -4 -10 -6 0
-11 5 -11 10 0 6 2 10 4 10 3 0 8 -4 11 -10z m-165 -30 c10 0 10 -3 1 -14 -9
-11 -7 -27 8 -72 12 -32 18 -60 15 -63 -9 -10 -20 18 -33 84 -7 36 -17 68 -22
71 -5 3 -9 11 -9 17 0 7 7 4 14 -5 7 -10 19 -18 26 -18z m124 -20 c-7 -6 -24
22 -23 40 0 9 6 5 14 -10 7 -14 11 -27 9 -30z m-174 10 c0 -5 -5 -10 -11 -10
-5 0 -7 5 -4 10 3 6 8 10 11 10 2 0 4 -4 4 -10z m232 -12 c-7 -7 -12 -8 -12
-2 0 14 12 26 19 19 2 -3 -1 -11 -7 -17z m34 -33 c-5 -27 -4 -35 7 -35 8 0 17
-11 19 -25 7 -35 -14 -26 -34 15 -21 42 -22 52 -6 68 19 19 21 15 14 -23z
m-246 -5 c0 -5 -4 -10 -10 -10 -5 0 -10 5 -10 10 0 6 5 10 10 10 6 0 10 -4 10
-10z m-37 -16 c8 -8 -3 -34 -14 -34 -5 0 -9 9 -9 20 0 19 11 26 23 14z m17
-69 c0 -8 -4 -15 -10 -15 -5 0 -10 7 -10 15 0 8 5 15 10 15 6 0 10 -7 10 -15z
m60 -48 c0 -10 -5 -15 -11 -12 -6 4 -8 9 -5 12 2 3 0 17 -5 32 -9 24 -8 25 6
7 8 -11 15 -28 15 -39z m30 23 c0 -5 -2 -10 -4 -10 -3 0 -8 5 -11 10 -3 6 -1
10 4 10 6 0 11 -4 11 -10z m230 -56 c0 -8 -4 -12 -10 -9 -5 3 -10 10 -10 16 0
5 5 9 10 9 6 0 10 -7 10 -16z m-186 -84 c-6 -5 -24 21 -24 34 0 6 6 1 14 -10
8 -10 12 -21 10 -24z m296 -40 c-7 -4 -10 -15 -7 -24 4 -9 2 -16 -2 -16 -11 0
-21 25 -21 51 0 17 3 18 21 8 16 -8 18 -13 9 -19z m-303 -42 c-3 -8 -6 -5 -6
6 -1 11 2 17 5 13 3 -3 4 -12 1 -19z m417 -7 c-4 -3 -9 0 -11 7 -3 6 -10 9
-15 6 -7 -4 -8 -2 -4 5 6 9 11 9 22 0 8 -6 12 -15 8 -18z m-439 -14 c1 -35
-19 -29 -23 7 -3 20 0 27 10 24 7 -3 13 -17 13 -31z m385 -62 c7 -22 22 -60
33 -85 36 -82 48 -125 37 -128 -14 -5 -13 -23 1 -19 7 1 18 -14 26 -33 13 -34
13 -34 -4 -15 -10 12 -26 24 -35 28 -12 4 -15 12 -11 23 4 12 3 15 -5 10 -8
-5 -12 0 -12 14 0 12 -9 33 -20 47 -11 15 -18 34 -15 43 3 10 -1 20 -9 23 -20
8 -28 -3 -15 -20 6 -7 8 -13 5 -13 -4 0 -2 -9 4 -20 8 -14 8 -20 0 -20 -6 0
-18 17 -27 38 -8 20 -24 56 -34 79 -10 23 -19 50 -19 60 0 11 -5 24 -12 31 -6
6 -9 14 -5 18 10 10 27 -6 27 -27 0 -10 5 -19 10 -19 6 0 10 -10 10 -22 0 -34
16 -56 31 -41 9 9 7 17 -5 34 -9 13 -16 31 -16 41 0 10 -4 18 -10 18 -5 0 -2
9 7 20 18 20 18 20 34 -2 10 -12 23 -40 29 -63z m60 53 c0 -4 -4 -8 -9 -8 -6
0 -12 4 -15 8 -3 5 1 9 9 9 8 0 15 -4 15 -9z m-370 -13 c0 -8 -2 -15 -4 -15
-2 0 -6 7 -10 15 -3 8 -1 15 4 15 6 0 10 -7 10 -15z m349 -63 c1 -7 -3 -10 -9
-7 -5 3 -10 18 -9 33 0 24 1 25 9 7 5 -11 9 -26 9 -33z m85 -51 c15 -40 25
-76 22 -78 -3 -3 -55 113 -73 165 -5 15 -4 15 9 2 8 -8 27 -48 42 -89z m-244
79 c0 -5 -4 -10 -10 -10 -5 0 -10 5 -10 10 0 6 5 10 10 10 6 0 10 -4 10 -10z
m-215 -54 c0 -18 41 -66 56 -66 5 0 7 11 3 25 -7 26 -5 28 20 19 8 -3 12 -12
9 -20 -3 -8 1 -14 10 -14 11 0 15 -10 14 -35 -1 -39 -12 -46 -22 -15 -3 11
-10 20 -15 20 -4 0 0 -22 11 -50 10 -27 15 -52 10 -55 -5 -3 -17 19 -26 47
-21 65 -41 90 -55 68 -7 -11 -11 -8 -20 15 -21 55 -25 88 -9 83 8 -3 14 -12
14 -22z m205 -16 c0 -5 -2 -10 -4 -10 -3 0 -8 5 -11 10 -3 6 -1 10 4 10 6 0
11 -4 11 -10z m190 -11 c0 -6 -4 -7 -10 -4 -5 3 -10 11 -10 16 0 6 5 7 10 4 6
-3 10 -11 10 -16z m35 -97 c-5 -5 -35 61 -35 75 1 4 10 -10 20 -31 11 -22 18
-42 15 -44z m-205 47 c0 -5 -4 -9 -10 -9 -5 0 -10 7 -10 16 0 8 5 12 10 9 6
-3 10 -10 10 -16z m420 -29 c0 -5 -2 -10 -4 -10 -3 0 -8 5 -11 10 -3 6 -1 10
4 10 6 0 11 -4 11 -10z m-503 -87 c3 -14 13 -23 24 -23 20 0 35 -39 25 -65 -9
-25 -24 -17 -37 23 -7 20 -18 46 -24 57 -7 11 -16 31 -19 45 -7 24 -7 24 9 5
9 -11 18 -30 22 -42z m113 35 c0 -16 -3 -19 -11 -11 -6 6 -8 16 -5 22 11 17
16 13 16 -11z m-195 2 c3 -5 1 -10 -4 -10 -6 0 -11 5 -11 10 0 6 2 10 4 10 3
0 8 -4 11 -10z m296 -30 c3 -19 10 -43 14 -52 4 -11 3 -18 -4 -18 -6 0 -14 12
-17 28 -4 15 -13 40 -21 55 -13 26 -13 28 4 25 11 -2 20 -16 24 -38z m279 -50
c0 -5 -4 -10 -10 -10 -5 0 -10 5 -10 10 0 6 5 10 10 10 6 0 10 -4 10 -10z
m-200 -40 c0 -5 -4 -10 -10 -10 -5 0 -10 5 -10 10 0 6 5 10 10 10 6 0 10 -4
10 -10z m220 0 c0 -5 -2 -10 -4 -10 -3 0 -8 5 -11 10 -3 6 -1 10 4 10 6 0 11
-4 11 -10z m-452 -69 c17 -56 14 -62 -8 -17 -22 43 -24 56 -12 56 5 0 14 -17
20 -39z m276 24 c6 -17 -34 -27 -51 -13 -7 5 -11 13 -9 17 8 12 55 9 60 -4z
m227 -61 c17 -36 29 -68 25 -71 -10 -10 -20 6 -49 75 -30 70 -31 76 -17 67 5
-3 24 -35 41 -71z m-197 10 c11 -28 6 -40 -14 -40 -12 0 -23 10 -29 28 -9 25
-8 28 13 28 13 0 27 -7 30 -16z m36 -85 c0 -6 -4 -7 -10 -4 -5 3 -10 11 -10
16 0 6 5 7 10 4 6 -3 10 -11 10 -16z m-25 -29 c3 -5 1 -10 -4 -10 -6 0 -11 5
-11 10 0 6 2 10 4 10 3 0 8 -4 11 -10z m235 -5 c0 -8 -4 -15 -10 -15 -5 0 -10
7 -10 15 0 8 5 15 10 15 6 0 10 -7 10 -15z m25 -65 c10 -11 13 -20 7 -20 -6 0
-16 9 -22 20 -6 11 -9 20 -7 20 2 0 12 -9 22 -20z m75 -21 c0 -6 -4 -7 -10 -4
-5 3 -10 11 -10 16 0 6 5 7 10 4 6 -3 10 -11 10 -16z m-770 -10 c0 -6 -4 -7
-10 -4 -5 3 -10 11 -10 16 0 6 5 7 10 4 6 -3 10 -11 10 -16z m56 -14 c11 -35
8 -41 -11 -27 -12 9 -19 62 -8 62 5 0 13 -16 19 -35z m691 -26 c3 -10 9 -19
13 -19 4 0 5 -11 2 -25 -2 -15 0 -25 7 -25 6 0 11 -10 11 -23 0 -13 7 -32 15
-43 17 -22 20 -38 5 -29 -15 9 -100 170 -100 189 0 14 4 15 21 5 12 -6 24 -20
26 -30z m-228 -16 l-1 -38 -13 30 c-10 22 -10 32 -2 37 17 11 17 11 16 -29z
m-434 -23 c3 -5 1 -10 -4 -10 -6 0 -11 5 -11 10 0 6 2 10 4 10 3 0 8 -4 11
-10z m485 -45 c0 -7 6 -16 13 -18 9 -4 8 -8 -3 -16 -13 -9 -13 -13 -1 -33 13
-21 13 -22 -2 -9 -10 7 -17 20 -17 27 0 8 -4 14 -9 14 -16 0 -24 42 -10 51 16
9 29 3 29 -16z m-425 -60 c0 -14 -3 -25 -6 -25 -10 0 -20 31 -13 41 10 17 19
9 19 -16z m10 -65 c3 -5 1 -10 -4 -10 -6 0 -11 5 -11 10 0 6 2 10 4 10 3 0 8
-4 11 -10z m715 -80 c0 -5 -4 -10 -10 -10 -5 0 -10 5 -10 10 0 6 5 10 10 10 6
0 10 -4 10 -10z m-642 -46 c2 -16 8 -35 14 -41 8 -10 6 -13 -6 -13 -9 0 -16 3
-16 8 0 4 -4 24 -9 45 -7 28 -6 37 2 34 7 -2 14 -17 15 -33z m-44 -5 c-10 -16
-24 -9 -24 12 0 18 2 19 15 9 8 -7 12 -16 9 -21z m706 7 c0 -7 12 -25 27 -40
23 -24 29 -38 32 -83 1 -7 9 -20 19 -30 10 -10 25 -34 32 -53 7 -19 18 -40 25
-45 12 -10 30 -55 22 -55 -14 0 -177 299 -177 325 0 3 5 3 10 0 6 -3 10 -12
10 -19z m-686 -57 c-3 -5 -10 -7 -15 -3 -5 3 -7 10 -3 15 3 5 10 7 15 3 5 -3
7 -10 3 -15z m56 -43 c-13 -13 -35 7 -25 24 5 8 11 8 21 -1 10 -8 12 -15 4
-23z m-40 -2 c0 -8 -4 -12 -10 -9 -5 3 -10 13 -10 21 0 8 5 12 10 9 6 -3 10
-13 10 -21z m70 -30 c0 -8 -7 -14 -15 -14 -15 0 -21 21 -9 33 10 9 24 -2 24
-19z m450 -4 c12 -23 12 -24 -3 -11 -10 7 -17 20 -17 29 0 18 3 16 20 -18z
m-400 -94 c0 -6 8 -20 17 -31 15 -20 15 -19 10 4 -6 22 -5 23 10 8 9 -9 16
-30 16 -46 0 -17 3 -29 6 -27 3 2 7 -11 8 -30 1 -19 9 -41 17 -50 9 -8 16 -22
16 -30 0 -13 12 -18 33 -15 4 0 7 -8 7 -18 0 -11 11 -41 25 -68 22 -44 23 -49
8 -60 -23 -18 -43 -16 -43 3 0 8 5 12 10 9 6 -3 10 -1 10 4 0 6 -9 11 -21 11
-19 0 -19 1 -5 16 21 21 20 31 -4 44 -16 9 -20 8 -20 -7 0 -13 -3 -14 -12 -5
-8 8 -8 15 0 25 15 17 6 28 -16 20 -13 -4 -13 -2 2 9 12 9 15 17 8 22 -18 11
-54 95 -46 107 4 8 3 9 -5 5 -7 -5 -19 9 -32 41 -11 26 -27 60 -35 75 -7 14
-14 30 -14 34 0 12 50 -38 50 -50z m435 25 c8 -16 20 -35 28 -43 31 -32 67
-86 67 -101 0 -10 6 -17 13 -17 8 0 7 -3 -3 -10 -15 -9 -35 14 -66 78 -9 17
-20 32 -24 32 -5 0 -11 13 -15 30 -4 16 -11 32 -16 35 -9 6 -13 25 -4 25 2 0
11 -13 20 -29z m22 -126 c8 -22 -6 -33 -17 -15 -13 20 -12 30 0 30 6 0 13 -7
17 -15z m283 -35 c0 -5 7 -10 15 -10 8 0 15 -9 15 -20 0 -11 5 -20 11 -20 6 0
9 -6 6 -13 -3 -7 3 -18 13 -24 18 -12 34 -63 19 -63 -5 0 -14 10 -20 23 -7 12
-15 24 -18 27 -13 11 -58 110 -50 110 5 0 9 -4 9 -10z m70 -15 c0 -9 -6 -12
-15 -9 -8 4 -15 10 -15 15 0 5 7 9 15 9 8 0 15 -7 15 -15z m-254 -52 c-4 -4
-11 -1 -16 7 -16 25 -11 35 7 17 9 -9 13 -20 9 -24z m-376 -87 c0 -6 -7 -2
-15 8 -8 11 -15 25 -15 30 0 6 7 2 15 -8 8 -11 15 -25 15 -30z m441 17 c1 -5
3 -19 4 -33 l2 -24 -18 23 c-11 13 -19 27 -19 32 0 11 29 12 31 2z m-421 -43
c0 -5 -2 -10 -4 -10 -3 0 -8 5 -11 10 -3 6 -1 10 4 10 6 0 11 -4 11 -10z m654
-6 c4 -10 1 -14 -6 -12 -15 5 -23 28 -10 28 5 0 13 -7 16 -16z m66 -101 c23
-46 23 -49 -4 -20 -26 28 -33 47 -18 47 5 0 15 -12 22 -27z m-637 -34 c29 -52
18 -67 -13 -17 -17 27 -30 50 -30 53 0 14 27 -9 43 -36z m17 11 c0 -5 -2 -10
-4 -10 -3 0 -8 5 -11 10 -3 6 -1 10 4 10 6 0 11 -4 11 -10z m30 -40 c0 -5 -2
-10 -4 -10 -3 0 -8 5 -11 10 -3 6 -1 10 4 10 6 0 11 -4 11 -10z m650 -34 c12
-25 27 -47 33 -49 7 -2 9 -7 6 -11 -11 -12 -39 6 -39 25 0 10 -4 19 -10 19 -5
0 -10 7 -10 15 0 8 -4 15 -10 15 -5 0 -10 7 -10 15 0 28 18 15 40 -29z m-182
-44 c6 -18 -15 -14 -22 4 -4 10 -1 14 6 12 6 -2 14 -10 16 -16z m252 -67 c0
-7 7 -18 15 -25 8 -7 15 -18 15 -24 -1 -16 -60 55 -60 72 0 12 3 12 15 2 8 -7
15 -18 15 -25z m-200 -27 c0 -18 -27 11 -33 35 -6 22 -6 22 14 -2 10 -13 19
-28 19 -33z m-534 -5 c-7 -7 -26 7 -26 19 0 6 6 6 15 -2 9 -7 13 -15 11 -17z
m86 -5 c46 -72 59 -98 49 -98 -5 0 -12 9 -16 19 -3 11 -24 38 -47 60 -33 34
-37 41 -20 41 11 0 26 -10 34 -22z m525 -95 c-8 -7 -37 9 -31 19 3 5 12 4 20
-3 8 -6 13 -14 11 -16z m193 17 c0 -5 -2 -10 -4 -10 -3 0 -8 5 -11 10 -3 6 -1
10 4 10 6 0 11 -4 11 -10z m-480 -45 c0 -8 -2 -15 -4 -15 -2 0 -6 7 -10 15 -3
8 -1 15 4 15 6 0 10 -7 10 -15z m520 -5 c0 -5 -2 -10 -4 -10 -3 0 -8 5 -11 10
-3 6 -1 10 4 10 6 0 11 -4 11 -10z m-486 -52 c22 -43 20 -44 -9 -10 -27 32
-31 42 -16 42 5 0 17 -14 25 -32z m286 0 c0 -6 -7 -5 -15 2 -8 7 -15 17 -15
22 0 6 7 5 15 -2 8 -7 15 -17 15 -22z m226 5 c-7 -7 -26 7 -26 19 0 6 6 6 15
-2 9 -7 13 -15 11 -17z m24 -34 c0 -6 -4 -7 -10 -4 -5 3 -10 11 -10 16 0 6 5
7 10 4 6 -3 10 -11 10 -16z m-200 7 c0 -2 3 -11 6 -20 5 -14 3 -14 -25 0 -38
19 -39 24 -6 24 14 0 25 -2 25 -4z m-272 -55 c3 -8 -1 -12 -9 -9 -7 2 -15 10
-17 17 -3 8 1 12 9 9 7 -2 15 -10 17 -17z m506 3 c3 -8 2 -12 -4 -9 -6 3 -10
10 -10 16 0 14 7 11 14 -7z m-543 -51 c9 -11 9 -17 0 -26 -10 -9 -17 -7 -32
12 -10 13 -19 27 -19 31 0 12 38 0 51 -17z m87 -42 c-14 -5 -38 27 -38 48 0
11 8 6 24 -14 14 -17 20 -32 14 -34z m-38 9 c0 -5 -2 -10 -4 -10 -3 0 -8 5
-11 10 -3 6 -1 10 4 10 6 0 11 -4 11 -10z m320 0 c0 -5 -2 -10 -4 -10 -3 0 -8
5 -11 10 -3 6 -1 10 4 10 6 0 11 -4 11 -10z m-70 -35 c7 -8 8 -15 2 -15 -5 0
-15 7 -22 15 -7 8 -8 15 -2 15 5 0 15 -7 22 -15z m101 -12 c13 -16 12 -17 -3
-4 -10 7 -18 15 -18 17 0 8 8 3 21 -13z m-15 -30 c-7 -7 -26 7 -26 19 0 6 6 6
15 -2 9 -7 13 -15 11 -17z m-311 -3 c2 -4 -5 -7 -17 -6 -12 0 -23 6 -25 13 -4
12 34 6 42 -7z m142 -86 l2 -49 -14 50 c-8 28 -14 52 -15 53 0 2 6 2 13 0 7
-3 13 -25 14 -54z m43 41 c7 -8 8 -15 2 -15 -5 0 -15 7 -22 15 -7 8 -8 15 -2
15 5 0 15 -7 22 -15z m244 -31 c8 -22 5 -24 -22 -17 -12 3 -22 12 -22 19 0 20
37 17 44 -2z m300 -43 c3 -5 -6 -8 -19 -8 -14 0 -25 3 -25 8 0 5 9 9 19 9 11
0 22 -4 25 -9z m-524 -51 c0 -5 -2 -10 -4 -10 -3 0 -8 5 -11 10 -3 6 -1 10 4
10 6 0 11 -4 11 -10z m-60 -31 c0 -5 -4 -9 -10 -9 -5 0 -10 7 -10 16 0 8 5 12
10 9 6 -3 10 -10 10 -16z m90 -10 c0 -6 -4 -7 -10 -4 -5 3 -10 11 -10 16 0 6
5 7 10 4 6 -3 10 -11 10 -16z m285 11 c3 -5 -1 -10 -9 -10 -9 0 -16 5 -16 10
0 6 4 10 9 10 6 0 13 -4 16 -10z m-318 -96 c-9 -9 -28 6 -21 18 4 6 10 6 17
-1 6 -6 8 -13 4 -17z m132 -41 c2 -2 -3 -3 -11 -3 -9 0 -19 7 -22 16 -6 15 -4
15 11 3 10 -7 20 -15 22 -16z m-19 -29 c0 -17 -22 -14 -28 4 -2 7 3 12 12 12
9 0 16 -7 16 -16z m376 -21 c-3 -3 -12 0 -21 7 -12 10 -15 10 -15 0 0 -8 -3
-11 -6 -7 -14 14 7 27 27 16 12 -6 18 -13 15 -16z m-71 7 c3 -6 -1 -7 -9 -4
-18 7 -21 14 -7 14 6 0 13 -4 16 -10z m-451 -76 c5 -14 4 -15 -9 -4 -17 14
-19 20 -6 20 5 0 12 -7 15 -16z m661 -84 c3 -5 2 -10 -4 -10 -5 0 -13 5 -16
10 -3 6 -2 10 4 10 5 0 13 -4 16 -10z m-282 -248 c10 -13 9 -15 -5 -10 -10 4
-19 1 -22 -8 -8 -21 -21 -17 -34 10 -10 23 -9 25 19 24 16 -1 35 -8 42 -16z
m32 -33 c4 -6 5 -12 3 -14 -7 -7 -48 7 -48 16 0 13 37 11 45 -2z m-120 -9 c3
-5 -1 -10 -9 -10 -9 0 -16 5 -16 10 0 6 4 10 9 10 6 0 13 -4 16 -10z m8 -27
c9 -3 17 -10 17 -17 0 -6 9 -17 20 -24 11 -7 20 -19 20 -27 0 -8 5 -15 10 -15
6 0 10 -7 10 -15 0 -7 8 -19 18 -24 15 -9 15 -12 2 -20 -12 -8 -10 -12 11 -19
14 -6 30 -17 37 -25 7 -8 24 -18 37 -21 14 -4 25 -12 25 -19 0 -7 9 -18 20
-25 11 -7 20 -18 20 -26 0 -8 14 -26 31 -41 17 -14 29 -29 26 -32 -4 -3 -36
24 -73 61 -37 36 -73 66 -80 66 -14 0 -44 29 -92 89 -15 18 -40 46 -56 62 -15
16 -25 29 -21 29 3 0 -4 14 -16 32 -21 29 -21 31 -3 24 10 -5 27 -11 37 -13z
m132 -3 c3 -5 -1 -10 -9 -10 -9 0 -16 5 -16 10 0 6 4 10 9 10 6 0 13 -4 16
-10z m55 -45 c7 -9 10 -18 7 -22 -8 -7 -37 15 -37 28 0 14 16 11 30 -6z m-114
-232 c-7 -7 -26 7 -26 19 0 6 6 6 15 -2 9 -7 13 -15 11 -17z m2495 -376 c-1
-12 -15 -9 -19 4 -3 6 1 10 8 8 6 -3 11 -8 11 -12z"/>
<path d="M2171 8514 c0 -11 3 -14 6 -6 3 7 2 16 -1 19 -3 4 -6 -2 -5 -13z"/>
<path d="M2120 8495 c-5 -21 2 -70 11 -79 5 -6 9 -3 8 10 -2 28 -16 81 -19 69z"/>
<path d="M1990 8381 c0 -6 5 -13 10 -16 6 -3 10 1 10 9 0 9 -4 16 -10 16 -5 0
-10 -4 -10 -9z"/>
<path d="M2056 8350 c3 -19 10 -39 15 -44 13 -14 10 2 -7 44 l-14 35 6 -35z"/>
<path d="M1951 8314 c0 -11 3 -14 6 -6 3 7 2 16 -1 19 -3 4 -6 -2 -5 -13z"/>
<path d="M2003 8306 c4 -10 1 -24 -9 -33 -16 -16 -13 -29 5 -18 23 14 29 40
13 55 -14 13 -15 12 -9 -4z"/>
<path d="M2161 8275 c0 -29 6 -58 14 -69 22 -30 23 -17 4 54 l-17 65 -1 -50z"/>
<path d="M2385 8277 c2 -17 3 -38 4 -45 1 -7 6 -10 11 -7 6 4 7 12 1 22 -4 9
-6 24 -4 33 3 10 0 20 -5 24 -6 3 -9 -8 -7 -27z"/>
<path d="M2505 8267 c3 -10 8 -36 11 -58 4 -21 11 -39 15 -39 11 0 2 43 -18
85 -7 17 -11 22 -8 12z"/>
<path d="M2082 8212 c1 -29 7 -61 14 -70 10 -14 11 -8 7 33 -9 76 -23 101 -21
37z"/>
<path d="M2014 8230 c3 -14 6 -31 6 -37 0 -7 5 -13 10 -13 12 0 2 50 -13 65
-6 7 -8 2 -3 -15z"/>
<path d="M2760 8235 c0 -8 5 -15 10 -15 6 0 10 7 10 15 0 8 -4 15 -10 15 -5 0
-10 -7 -10 -15z"/>
<path d="M2435 8200 c10 -65 26 -86 18 -25 -3 28 -10 55 -15 60 -7 6 -8 -6 -3
-35z"/>
<path d="M2057 8203 c-4 -3 -7 -11 -7 -17 0 -6 5 -5 12 2 6 6 9 14 7 17 -3 3
-9 2 -12 -2z"/>
<path d="M1980 8159 c11 -38 26 -55 17 -19 -4 14 -7 31 -7 38 0 6 -4 12 -9 12
-6 0 -6 -12 -1 -31z"/>
<path d="M2400 8175 c0 -15 18 -40 24 -34 3 3 -1 14 -9 25 -8 10 -14 15 -15 9z"/>
<path d="M2033 8138 c3 -9 11 -35 17 -58 6 -23 13 -40 15 -38 6 6 -17 92 -28
103 -7 7 -8 4 -4 -7z"/>
<path d="M2531 8143 c0 -4 4 -17 9 -28 8 -19 9 -19 9 2 1 12 -3 25 -9 28 -5 3
-10 3 -9 -2z"/>
<path d="M2460 8106 c0 -9 5 -16 10 -16 6 0 10 4 10 9 0 6 -4 13 -10 16 -5 3
-10 -1 -10 -9z"/>
<path d="M1990 8101 c0 -5 5 -13 10 -16 6 -3 10 -2 10 4 0 5 -4 13 -10 16 -5
3 -10 2 -10 -4z"/>
<path d="M2420 8085 c0 -5 5 -17 10 -25 5 -8 10 -10 10 -5 0 6 -5 17 -10 25
-5 8 -10 11 -10 5z"/>
<path d="M2472 8030 c13 -20 28 -27 28 -12 0 10 -22 32 -32 32 -5 0 -3 -9 4
-20z"/>
<path d="M3014 8028 c-9 -15 27 -41 39 -29 13 13 1 41 -17 41 -8 0 -18 -5 -22
-12z"/>
<path d="M2010 8026 c0 -1 4 -16 9 -32 5 -16 12 -42 16 -58 3 -15 8 -26 11
-23 8 8 -18 117 -28 117 -4 0 -8 -2 -8 -4z"/>
<path d="M2560 8014 c0 -8 5 -12 10 -9 6 4 8 11 5 16 -9 14 -15 11 -15 -7z"/>
<path d="M2495 7940 c3 -5 8 -10 11 -10 2 0 4 5 4 10 0 6 -5 10 -11 10 -5 0
-7 -4 -4 -10z"/>
<path d="M2640 7690 c0 -11 4 -20 9 -20 5 0 7 9 4 20 -3 11 -7 20 -9 20 -2 0
-4 -9 -4 -20z"/>
<path d="M2657 7631 c3 -14 1 -21 -8 -21 -7 0 -3 -7 9 -16 13 -9 26 -13 30 -9
4 4 2 10 -5 12 -7 2 -10 10 -7 17 3 7 -2 18 -10 25 -12 10 -14 9 -9 -8z"/>
<path d="M2680 7555 c0 -8 4 -15 10 -15 5 0 7 7 4 15 -4 8 -8 15 -10 15 -2 0
-4 -7 -4 -15z"/>
<path d="M1951 7473 c-1 -12 4 -25 9 -28 12 -7 12 2 0 30 -8 19 -9 19 -9 -2z"/>
<path d="M2711 7458 c-1 -12 31 -89 35 -85 3 2 -4 24 -15 48 -11 24 -20 41
-20 37z"/>
<path d="M2665 7410 c3 -5 8 -10 11 -10 2 0 4 5 4 10 0 6 -5 10 -11 10 -5 0
-7 -4 -4 -10z"/>
<path d="M2710 7380 c0 -5 5 -10 11 -10 5 0 7 5 4 10 -3 6 -8 10 -11 10 -2 0
-4 -4 -4 -10z"/>
<path d="M2755 7330 c12 -40 26 -59 19 -25 -4 17 -11 35 -16 40 -7 7 -8 1 -3
-15z"/>
<path d="M2795 7300 c3 -5 8 -10 11 -10 2 0 4 5 4 10 0 6 -5 10 -11 10 -5 0
-7 -4 -4 -10z"/>
<path d="M1975 7261 c-3 -6 1 -27 10 -47 8 -20 15 -47 15 -60 0 -15 6 -24 15
-24 13 0 12 8 -4 51 -11 28 -17 57 -15 64 6 16 -12 29 -21 16z"/>
<path d="M1935 7233 c1 -16 11 -50 23 -77 12 -27 22 -59 22 -72 0 -22 28 -60
37 -50 5 5 -16 87 -27 101 -4 6 -15 36 -25 68 -19 60 -34 75 -30 30z"/>
<path d="M2070 7125 c0 -8 4 -15 10 -15 5 0 7 7 4 15 -4 8 -8 15 -10 15 -2 0
-4 -7 -4 -15z"/>
<path d="M1880 7095 c0 -18 19 -40 26 -32 4 4 0 15 -9 24 -9 10 -17 13 -17 8z"/>
<path d="M2830 7090 c0 -5 5 -10 11 -10 5 0 7 5 4 10 -3 6 -8 10 -11 10 -2 0
-4 -4 -4 -10z"/>
<path d="M2090 7051 c0 -6 4 -13 10 -16 6 -3 7 1 4 9 -7 18 -14 21 -14 7z"/>
<path d="M1914 7025 c3 -16 9 -45 12 -62 4 -18 11 -33 15 -33 12 0 11 15 -3
64 -14 50 -33 75 -24 31z"/>
<path d="M1980 6991 c0 -5 5 -13 10 -16 6 -3 10 -2 10 4 0 5 -4 13 -10 16 -5
3 -10 2 -10 -4z"/>
<path d="M2030 6995 c0 -5 5 -17 10 -25 5 -8 10 -10 10 -5 0 6 -5 17 -10 25
-5 8 -10 11 -10 5z"/>
<path d="M1911 6924 c0 -11 3 -14 6 -6 3 7 2 16 -1 19 -3 4 -6 -2 -5 -13z"/>
<path d="M2830 6930 c0 -5 5 -10 10 -10 6 0 10 5 10 10 0 6 -4 10 -10 10 -5 0
-10 -4 -10 -10z"/>
<path d="M1915 6880 c-3 -5 1 -10 9 -10 9 0 16 5 16 10 0 6 -4 10 -9 10 -6 0
-13 -4 -16 -10z"/>
<path d="M3552 6878 c-14 -14 -16 -58 -3 -58 5 0 13 -9 16 -21 4 -12 13 -18
20 -15 9 3 16 -8 20 -35 4 -22 13 -43 21 -46 8 -3 14 -11 14 -18 0 -17 41 -27
57 -13 29 24 5 82 -44 107 -18 9 -23 20 -23 51 0 29 -4 40 -15 40 -8 0 -15 5
-15 10 0 14 -33 13 -48 -2z"/>
<path d="M2911 6865 c15 -30 29 -65 45 -107 9 -27 21 -48 25 -48 13 0 11 18
-2 25 -6 4 -8 13 -5 20 2 7 -2 16 -11 19 -8 4 -13 13 -10 20 3 8 -1 20 -8 26
-8 7 -13 16 -10 20 3 4 -3 14 -12 21 -9 8 -15 10 -12 4z"/>
<path d="M1981 6840 c0 -8 4 -24 9 -35 l9 -20 0 20 c0 11 -4 27 -9 35 -9 13
-10 13 -9 0z"/>
<path d="M2805 6800 c3 -5 11 -10 16 -10 6 0 7 5 4 10 -3 6 -11 10 -16 10 -6
0 -7 -4 -4 -10z"/>
<path d="M2156 6745 c4 -8 8 -15 10 -15 2 0 4 7 4 15 0 8 -4 15 -10 15 -5 0
-7 -7 -4 -15z"/>
<path d="M2981 6699 c-1 -4 19 -55 43 -113 24 -58 40 -106 35 -106 -5 0 -6 -7
-2 -16 4 -12 8 -12 13 -4 5 9 10 5 15 -11 13 -43 37 -89 46 -89 6 0 6 7 0 18
-5 9 -10 22 -10 27 -3 23 -13 45 -21 45 -5 0 -7 7 -4 15 4 8 -1 17 -9 21 -14
5 -34 58 -29 77 1 4 -7 17 -18 29 -11 12 -18 28 -16 35 3 7 2 13 -2 13 -5 0
-16 15 -25 33 -8 17 -16 29 -16 26z"/>
<path d="M2193 6645 c6 -19 14 -35 19 -35 11 0 10 2 -8 38 -20 42 -25 40 -11
-3z"/>
<path d="M3025 6670 c3 -5 8 -10 11 -10 2 0 4 5 4 10 0 6 -5 10 -11 10 -5 0
-7 -4 -4 -10z"/>
<path d="M2240 6641 c0 -5 5 -13 10 -16 6 -3 10 -2 10 4 0 5 -4 13 -10 16 -5
3 -10 2 -10 -4z"/>
<path d="M2095 6538 c7 -28 -8 -40 -18 -15 -4 10 -6 10 -6 0 -1 -7 -8 -13 -17
-13 -9 0 -14 -6 -11 -12 2 -7 11 -12 18 -10 11 3 11 1 2 -9 -8 -8 -9 -17 -1
-33 24 -45 28 -56 28 -67 0 -20 54 -123 58 -111 5 17 22 15 22 -3 0 -8 -5 -15
-12 -15 -9 0 -9 -3 0 -12 7 -7 12 -24 12 -40 0 -32 35 -57 53 -39 9 9 8 14 -2
20 -8 5 -9 11 -3 15 6 3 18 -8 26 -25 20 -40 20 -39 -4 -39 -11 0 -20 -4 -20
-10 0 -5 15 -9 34 -7 21 1 31 6 27 12 -4 6 -13 28 -20 50 -7 22 -26 69 -42
104 -17 35 -39 85 -50 112 -14 32 -25 46 -35 42 -8 -3 -14 1 -15 8 -1 8 -2 33
-3 57 -1 23 -8 48 -15 55 -10 10 -11 7 -6 -15z m55 -151 c0 -5 -4 -5 -10 -2
-5 3 -10 14 -10 23 0 15 2 15 10 2 5 -8 10 -19 10 -23z m28 -53 c-10 -10 -28
6 -28 24 0 15 1 15 17 -1 9 -9 14 -19 11 -23z m19 -66 c-3 -8 -6 -5 -6 6 -1
11 2 17 5 13 3 -3 4 -12 1 -19z m23 -38 c0 -5 -4 -10 -10 -10 -5 0 -10 5 -10
10 0 6 5 10 10 10 6 0 10 -4 10 -10z m-25 -50 c3 -5 1 -10 -4 -10 -6 0 -11 5
-11 10 0 6 2 10 4 10 3 0 8 -4 11 -10z"/>
<path d="M3138 6425 c5 -11 12 -27 15 -35 5 -13 6 -13 6 1 1 8 -6 24 -15 35
-15 19 -15 19 -6 -1z"/>
<path d="M4213 6394 c-3 -8 1 -22 10 -31 14 -14 16 -13 27 7 10 18 9 24 -1 31
-20 13 -29 11 -36 -7z"/>
<path d="M2240 6331 c0 -5 5 -13 10 -16 6 -3 10 -2 10 4 0 5 -4 13 -10 16 -5
3 -10 2 -10 -4z"/>
<path d="M3157 6280 c3 -10 12 -25 21 -32 13 -11 12 -8 -2 20 -19 36 -27 41
-19 12z"/>
<path d="M3198 6188 c3 -13 8 -25 11 -28 3 -3 22 -39 41 -80 37 -81 47 -97 55
-88 3 3 -8 32 -24 64 -17 32 -40 80 -51 107 -22 49 -42 64 -32 25z"/>
<path d="M3240 6181 c0 -5 7 -15 17 -22 15 -13 15 -12 4 9 -12 23 -21 28 -21
13z"/>
<path d="M3286 6097 c3 -10 9 -15 12 -12 3 3 0 11 -7 18 -10 9 -11 8 -5 -6z"/>
<path d="M2235 6080 c-3 -6 -1 -10 5 -10 7 0 9 -8 4 -22 -3 -13 -3 -20 1 -16
5 4 14 3 22 -3 10 -9 17 -8 31 2 16 13 16 13 0 -7 -10 -11 -18 -26 -18 -33 0
-7 -4 -10 -10 -6 -5 3 -6 13 -3 23 5 13 3 14 -7 5 -9 -9 -7 -17 11 -42 12 -16
26 -28 31 -25 4 3 8 -5 8 -18 0 -18 -2 -20 -10 -8 -8 13 -10 12 -10 -3 0 -10
10 -22 23 -27 17 -7 18 -9 4 -9 -14 -1 -15 -4 -5 -20 7 -11 16 -17 22 -14 5 3
6 1 2 -5 -7 -12 40 -103 60 -114 7 -5 10 -17 7 -29 -5 -19 -3 -20 18 -14 33
10 36 15 19 25 -11 7 -12 12 -4 20 8 8 17 0 32 -31 23 -46 22 -60 -2 -40 -11
9 -20 10 -33 2 -17 -9 -17 -10 -1 -16 9 -4 22 -4 28 0 6 4 10 -4 10 -19 0 -14
3 -26 8 -27 4 0 17 -2 30 -3 13 -2 21 2 19 8 -2 6 -14 10 -25 10 -23 -1 -29
15 -11 33 7 7 2 31 -17 79 -15 38 -31 71 -36 72 -4 2 -8 11 -8 20 0 10 -9 28
-20 42 -11 14 -20 30 -20 36 0 12 -16 46 -35 74 -6 8 -20 37 -31 64 -18 42
-26 49 -52 52 -17 2 -34 -1 -37 -6z m60 -20 c3 -6 -4 -10 -17 -10 -18 0 -20 2
-8 10 19 12 18 12 25 0z m30 -80 c3 -5 1 -10 -4 -10 -6 0 -11 5 -11 10 0 6 2
10 4 10 3 0 8 -4 11 -10z m20 -40 c3 -5 1 -10 -4 -10 -6 0 -11 5 -11 10 0 6 2
10 4 10 3 0 8 -4 11 -10z"/>
<path d="M3340 5922 c0 -14 28 -72 35 -72 2 0 -1 14 -6 32 -9 35 -29 61 -29
40z"/>
<path d="M3380 5830 c0 -6 7 -10 15 -10 8 0 15 2 15 4 0 2 -7 6 -15 10 -8 3
-15 1 -15 -4z"/>
<path d="M3395 5790 c3 -5 11 -10 16 -10 6 0 7 5 4 10 -3 6 -11 10 -16 10 -6
0 -7 -4 -4 -10z"/>
<path d="M3426 5747 c3 -10 9 -15 12 -12 3 3 0 11 -7 18 -10 9 -11 8 -5 -6z"/>
<path d="M3461 5675 c11 -29 61 -116 64 -113 5 5 -42 99 -57 113 -7 6 -9 6 -7
0z"/>
<path d="M4741 5610 c-18 -10 -19 -64 -1 -84 20 -25 49 -19 61 12 12 30 5 48
-27 68 -12 8 -25 10 -33 4z"/>
<path d="M2526 5565 c4 -8 10 -15 15 -15 5 0 9 7 9 15 0 8 -7 15 -15 15 -9 0
-12 -6 -9 -15z"/>
<path d="M2533 5542 c-19 -3 -21 -7 -13 -23 8 -15 7 -19 -5 -19 -24 0 -17 -17
10 -24 24 -6 36 -26 15 -26 -5 0 -10 -4 -10 -10 0 -5 7 -10 15 -10 18 0 37
-42 24 -51 -5 -3 0 -14 11 -24 11 -10 20 -24 20 -32 0 -7 7 -13 16 -13 11 0
14 -5 10 -16 -7 -19 14 -42 34 -36 9 2 6 -2 -5 -11 -11 -8 -16 -19 -12 -23 4
-5 12 -2 16 5 7 11 11 10 19 -5 9 -16 11 -16 26 -1 10 9 12 18 6 22 -5 3 -10
14 -10 23 0 9 -10 28 -21 42 -14 16 -19 19 -15 8 3 -10 1 -18 -5 -18 -7 0 -9
10 -5 24 4 17 -8 52 -45 122 -28 54 -51 99 -52 99 -1 1 -12 -1 -24 -3z m27
-32 c0 -5 -5 -10 -11 -10 -5 0 -7 5 -4 10 3 6 8 10 11 10 2 0 4 -4 4 -10z m20
-40 c0 -5 -4 -10 -10 -10 -5 0 -10 5 -10 10 0 6 5 10 10 10 6 0 10 -4 10 -10z"/>
<path d="M3530 5536 c0 -8 7 -16 15 -20 13 -4 14 -2 5 14 -13 23 -20 26 -20 6z"/>
<path d="M3565 5478 c4 -13 18 -40 31 -60 13 -21 24 -42 24 -48 0 -5 5 -10 10
-10 15 0 12 15 -8 41 -10 13 -26 41 -36 62 -19 41 -31 50 -21 15z"/>
<path d="M4876 5333 c-11 -11 -6 -23 9 -23 8 0 15 4 15 9 0 13 -16 22 -24 14z"/>
<path d="M3679 5275 c12 -22 31 -51 42 -65 16 -19 15 -13 -6 25 -33 61 -65 97
-36 40z"/>
<path d="M4771 5270 c-2 -24 -2 -24 -16 -6 -14 19 -15 19 -15 -8 0 -23 -4 -27
-19 -23 -17 4 -18 2 -8 -15 9 -16 9 -22 0 -25 -18 -6 4 -48 33 -64 30 -16 71
3 77 35 3 20 -18 76 -33 86 -4 3 -10 14 -13 25 -4 17 -5 16 -6 -5z"/>
<path d="M4863 5253 c-21 -43 14 -86 36 -45 7 13 5 26 -7 44 l-17 26 -12 -25z"/>
<path d="M2672 5193 c6 -7 26 -13 45 -13 29 0 33 2 24 14 -7 8 -27 14 -46 13
-27 -1 -32 -4 -23 -14z"/>
<path d="M3700 5150 c6 -11 13 -20 16 -20 2 0 0 9 -6 20 -6 11 -13 20 -16 20
-2 0 0 -9 6 -20z"/>
<path d="M4860 5156 c0 -9 7 -16 16 -16 9 0 14 5 12 12 -6 18 -28 21 -28 4z"/>
<path d="M2706 5145 c4 -8 7 -15 9 -15 2 0 5 7 9 15 3 9 0 15 -9 15 -9 0 -12
-6 -9 -15z"/>
<path d="M3750 5156 c0 -2 7 -9 15 -16 13 -11 14 -10 9 4 -5 14 -24 23 -24 12z"/>
<path d="M2720 5116 c0 -2 6 -9 14 -15 11 -9 16 -9 22 0 4 8 3 9 -4 5 -7 -4
-12 -2 -12 3 0 6 -4 11 -10 11 -5 0 -10 -2 -10 -4z"/>
<path d="M2730 5069 c0 -5 11 -9 25 -9 33 0 33 15 0 16 -14 1 -25 -2 -25 -7z"/>
<path d="M2790 5070 c0 -6 5 -10 10 -10 6 0 10 -7 10 -16 0 -13 -3 -14 -14 -5
-10 8 -16 9 -21 1 -3 -5 -1 -10 4 -10 6 0 11 -7 11 -15 0 -8 10 -23 22 -35 21
-19 21 -20 2 -20 -18 -1 -18 -1 -1 -14 10 -8 20 -20 22 -28 14 -59 29 -74 42
-40 6 14 8 13 13 -8 4 -16 14 -26 28 -28 26 -4 28 5 5 38 -27 40 -45 50 -63
37 -9 -7 -7 -3 3 9 17 21 17 23 -13 73 -16 29 -30 56 -30 60 0 5 -7 11 -15 15
-8 3 -15 1 -15 -4z m65 -100 c3 -5 1 -10 -4 -10 -6 0 -11 5 -11 10 0 6 2 10 4
10 3 0 8 -4 11 -10z"/>
<path d="M3025 4980 c3 -5 8 -10 11 -10 2 0 4 5 4 10 0 6 -5 10 -11 10 -5 0
-7 -4 -4 -10z"/>
<path d="M2942 4791 c-9 -24 -7 -31 6 -36 14 -5 14 -7 2 -15 -12 -7 -12 -12
-2 -22 10 -10 14 -10 22 2 5 8 6 18 4 22 -3 4 2 8 12 8 13 0 14 3 4 15 -6 8
-17 13 -23 12 -7 -1 -11 8 -10 21 4 31 -3 28 -15 -7z"/>
<path d="M2990 4731 c0 -5 7 -12 16 -15 14 -5 15 -4 4 9 -14 17 -20 19 -20 6z"/>
<path d="M3980 4706 c0 -2 8 -10 18 -17 15 -13 16 -12 3 4 -13 16 -21 21 -21
13z"/>
<path d="M3020 4692 c0 -5 -12 -7 -27 -4 -27 4 -27 4 -8 -11 15 -12 23 -13 35
-4 8 6 16 12 18 13 2 1 -1 5 -7 9 -6 3 -11 2 -11 -3z"/>
<path d="M3200 4643 c1 -10 36 -53 44 -53 3 0 -3 13 -12 30 -16 28 -32 40 -32
23z"/>
<path d="M4080 4640 c0 -5 5 -10 11 -10 5 0 7 5 4 10 -3 6 -8 10 -11 10 -2 0
-4 -4 -4 -10z"/>
<path d="M5500 4640 c0 -5 4 -10 9 -10 7 0 41 -48 93 -132 9 -15 25 -36 35
-46 48 -50 105 -157 108 -200 1 -15 5 -35 9 -44 6 -12 3 -20 -8 -24 -9 -3 -16
-14 -16 -23 0 -9 -8 -24 -19 -32 -17 -15 -20 -15 -41 1 -20 15 -26 16 -37 5
-7 -8 -13 -18 -13 -24 0 -6 -4 -11 -10 -11 -5 0 -1 -16 10 -35 11 -19 17 -41
14 -49 -3 -7 9 -30 26 -50 52 -59 113 -42 129 36 5 23 13 34 31 38 14 3 25 10
26 15 0 6 4 18 8 27 14 32 10 237 -6 304 -12 53 -73 124 -105 124 -13 0 -23 5
-23 10 0 7 -7 7 -21 0 -17 -10 -26 -6 -63 28 -24 22 -52 43 -64 46 -11 4 -27
18 -36 31 -17 25 -36 33 -36 15z"/>
<path d="M3280 4531 c0 -7 -5 -9 -12 -5 -7 5 5 -10 27 -32 22 -21 41 -38 43
-37 2 0 -10 20 -27 44 -17 23 -31 37 -31 30z"/>
<path d="M5330 4531 c0 -6 4 -13 10 -16 6 -3 7 1 4 9 -7 18 -14 21 -14 7z"/>
<path d="M4180 4517 c0 -5 6 -15 14 -23 8 -7 16 -19 19 -26 2 -7 7 -11 10 -8
3 3 -5 19 -18 35 -13 17 -24 26 -25 22z"/>
<path d="M4230 4440 c0 -5 9 -14 20 -20 11 -6 20 -7 20 -3 0 5 -9 14 -20 21
-11 7 -20 8 -20 2z"/>
<path d="M3380 4395 c1 -14 38 -61 43 -55 3 3 -6 19 -19 35 -13 17 -24 26 -24
20z"/>
<path d="M3370 4360 c0 -5 5 -10 11 -10 5 0 7 5 4 10 -3 6 -8 10 -11 10 -2 0
-4 -4 -4 -10z"/>
<path d="M3440 4316 c0 -10 83 -118 104 -135 11 -9 16 -10 16 -2 0 6 -4 11 -9
11 -5 0 -23 22 -40 49 -31 47 -71 91 -71 77z"/>
<path d="M3485 4310 c3 -5 8 -10 11 -10 2 0 4 5 4 10 0 6 -5 10 -11 10 -5 0
-7 -4 -4 -10z"/>
<path d="M3275 4300 c3 -5 14 -10 23 -10 15 0 15 2 2 10 -20 13 -33 13 -25 0z"/>
<path d="M3295 4270 c3 -5 8 -10 11 -10 2 0 4 5 4 10 0 6 -5 10 -11 10 -5 0
-7 -4 -4 -10z"/>
<path d="M3440 4270 c0 -5 5 -10 11 -10 5 0 7 5 4 10 -3 6 -8 10 -11 10 -2 0
-4 -4 -4 -10z"/>
<path d="M3260 4261 c0 -6 5 -13 10 -16 6 -3 10 1 10 9 0 9 -4 16 -10 16 -5 0
-10 -4 -10 -9z"/>
<path d="M3290 4220 c0 -5 5 -10 10 -10 6 0 10 5 10 10 0 6 -4 10 -10 10 -5 0
-10 -4 -10 -10z"/>
<path d="M3480 4221 c0 -6 4 -13 10 -16 6 -3 7 1 4 9 -7 18 -14 21 -14 7z"/>
<path d="M3340 4149 c0 -8 10 -20 23 -28 l22 -14 -20 24 c-11 13 -21 26 -22
28 -2 2 -3 -2 -3 -10z"/>
<path d="M3576 4086 c21 -28 37 -35 28 -11 -4 8 -2 15 4 15 6 0 13 -6 15 -12
4 -8 6 -9 6 -2 1 6 -6 17 -14 24 -11 9 -15 9 -15 1 0 -9 -5 -9 -21 0 -21 11
-21 11 -3 -15z"/>
<path d="M3515 3941 c-3 -5 -1 -12 5 -16 5 -3 10 1 10 9 0 18 -6 21 -15 7z"/>
<path d="M3540 3941 c0 -5 5 -13 10 -16 6 -3 10 -2 10 4 0 5 -4 13 -10 16 -5
3 -10 2 -10 -4z"/>
<path d="M3555 3890 c-3 -5 -2 -10 4 -10 5 0 13 5 16 10 3 6 2 10 -4 10 -5 0
-13 -4 -16 -10z"/>
<path d="M4695 3890 c3 -5 8 -10 11 -10 2 0 4 5 4 10 0 6 -5 10 -11 10 -5 0
-7 -4 -4 -10z"/>
<path d="M3740 3842 c0 -11 27 -42 37 -42 3 0 -2 10 -13 23 -10 12 -20 24 -21
26 -2 2 -3 -1 -3 -7z"/>
<path d="M3615 3810 c3 -5 8 -10 11 -10 2 0 4 5 4 10 0 6 -5 10 -11 10 -5 0
-7 -4 -4 -10z"/>
<path d="M3685 3720 c3 -5 8 -10 11 -10 2 0 4 5 4 10 0 6 -5 10 -11 10 -5 0
-7 -4 -4 -10z"/>
<path d="M3722 3684 c11 -11 21 -14 26 -9 4 6 6 9 3 8 -2 -1 -13 3 -25 9 -20
10 -20 10 -4 -8z"/>
<path d="M5430 3137 c0 -2 15 -16 33 -33 l32 -29 -29 33 c-28 30 -36 37 -36
29z"/>
<path d="M6475 3130 c-3 -5 -1 -10 4 -10 6 0 11 5 11 10 0 6 -2 10 -4 10 -3 0
-8 -4 -11 -10z"/>
<path d="M6456 3053 c-11 -11 -6 -23 9 -23 8 0 15 4 15 9 0 13 -16 22 -24 14z"/>
<path d="M6825 2650 c3 -5 8 -10 11 -10 2 0 4 5 4 10 0 6 -5 10 -11 10 -5 0
-7 -4 -4 -10z"/>
<path d="M4345 2610 c10 -11 14 -20 10 -20 -4 0 0 -9 10 -20 10 -11 14 -20 10
-20 -5 0 -4 -5 3 -12 29 -29 -10 -118 -55 -123 -10 -1 -25 -5 -33 -9 -8 -3
-28 -5 -44 -3 -30 2 -33 -3 -27 -65 1 -19 53 -34 73 -21 7 4 42 8 77 8 64 0
65 0 94 41 33 48 46 113 26 135 -19 21 -39 56 -39 71 -1 20 -41 44 -84 51 -38
6 -38 6 -21 -13z"/>
<path d="M4540 1700 c0 -5 5 -10 11 -10 5 0 7 5 4 10 -3 6 -8 10 -11 10 -2 0
-4 -4 -4 -10z"/>
<path d="M7636 1064 c-16 -11 -17 -17 -8 -26 9 -9 16 -8 29 5 23 23 5 41 -21
21z"/>
<path d="M7790 681 c0 -5 5 -13 10 -16 6 -3 10 -2 10 4 0 5 -4 13 -10 16 -5 3
-10 2 -10 -4z"/>
</g>
</svg>
