<?xml version="1.0" standalone="no"?>
<!DOCTYPE svg PUBLIC "-//W3C//DTD SVG 20010904//EN"
 "http://www.w3.org/TR/2001/REC-SVG-20010904/DTD/svg10.dtd">
<svg version="1.0" xmlns="http://www.w3.org/2000/svg"
 width="150.000000pt" height="489.000000pt" viewBox="0 0 850.000000 489.000000"
 preserveAspectRatio="xMidYMid meet">

<g transform="translate(0.000000,489.000000) scale(0.100000,-0.100000)"
fill="#fff" stroke="none">
<path d="M5380 4711 c0 -6 5 -13 10 -16 18 -11 11 -27 -7 -17 -18 10 -73 -4
-73 -18 0 -5 13 -18 30 -30 16 -12 33 -33 37 -48 3 -15 14 -38 25 -51 10 -13
16 -26 14 -29 -3 -2 -48 23 -100 57 -62 40 -105 61 -125 61 -16 0 -58 12 -92
27 -44 19 -64 24 -67 15 -2 -8 -9 -9 -22 -2 -12 7 -21 7 -25 0 -3 -5 -29 1
-62 15 -31 14 -58 24 -60 22 -2 -2 6 -15 17 -30 26 -32 26 -51 0 -44 -17 4
-19 -1 -22 -47 l-3 -51 -28 29 c-19 21 -26 24 -20 11 6 -18 4 -17 -21 3 -16
12 -35 22 -42 22 -7 0 -32 -19 -55 -41 -36 -35 -40 -43 -28 -53 9 -6 22 -26
30 -43 7 -18 18 -33 24 -33 5 0 26 -14 45 -31 24 -20 27 -27 12 -19 -38 19
-36 5 4 -29 43 -35 39 -46 -14 -44 l-37 2 41 -19 c44 -21 76 -50 55 -50 -7 0
-9 -5 -4 -12 4 -7 -5 -5 -20 5 -34 22 -37 22 -24 -6 17 -36 51 -56 109 -65 50
-7 53 -9 53 -37 0 -27 -4 -30 -35 -33 -19 -2 -43 -11 -52 -19 -16 -14 -19 -14
-37 8 -17 21 -18 25 -3 30 12 4 9 10 -16 24 -18 11 -32 24 -32 29 0 6 5 5 12
-2 16 -16 28 -15 28 3 0 8 -16 22 -36 31 -19 9 -52 37 -72 60 -20 24 -43 44
-50 44 -12 0 -12 -3 -2 -15 10 -12 9 -15 -4 -15 -10 0 -14 -4 -11 -10 4 -6 -5
-10 -20 -10 -36 0 -22 -17 26 -31 57 -18 35 -30 -59 -32 -45 -2 -84 -6 -89
-10 -11 -12 18 -27 52 -27 17 0 48 -3 69 -7 34 -5 38 -4 33 10 -10 26 11 20
29 -8 20 -31 17 -35 -30 -37 -20 -1 -36 -5 -36 -9 0 -11 42 -39 59 -39 7 0 20
-8 27 -17 7 -10 16 -14 21 -9 4 4 -2 15 -14 23 -26 17 -30 33 -9 33 17 0 77
-70 70 -81 -2 -4 0 -10 6 -14 5 -3 15 -15 21 -26 10 -19 8 -20 -32 -18 -27 2
-44 -1 -47 -9 -2 -8 10 -12 38 -12 45 0 72 -11 108 -43 38 -35 29 -46 -30 -31
-29 8 -59 14 -68 14 -20 -1 48 -30 70 -30 9 0 29 -11 44 -25 15 -14 36 -25 46
-25 10 0 22 -4 25 -10 9 -15 -26 -12 -60 6 -38 20 -121 32 -111 16 4 -7 15
-12 25 -12 10 0 39 -7 65 -16 34 -12 44 -19 35 -25 -12 -7 -11 -11 1 -19 8 -5
22 -10 30 -11 10 0 8 -3 -5 -9 -16 -7 -12 -9 20 -9 77 -2 134 -30 223 -109 33
-30 34 -33 12 -28 -16 4 -11 -1 15 -15 51 -28 115 -78 115 -90 0 -11 -53 15
-89 42 -13 10 -28 16 -34 12 -5 -3 -7 -1 -3 5 3 6 2 13 -3 16 -14 9 -21 -20
-8 -34 10 -10 8 -12 -8 -6 -19 6 -19 5 1 -11 12 -10 56 -43 97 -73 42 -30 71
-57 66 -59 -17 -5 -69 21 -87 44 -10 12 -32 26 -50 30 -34 7 -42 -4 -17 -25
20 -17 19 -30 -2 -25 -10 3 -4 -1 12 -9 17 -8 35 -15 42 -16 7 0 29 -10 50
-22 21 -12 50 -20 65 -20 15 1 46 -9 70 -22 37 -20 43 -29 46 -60 3 -31 0 -36
-18 -36 -12 0 -19 4 -16 8 3 5 -8 6 -25 4 -21 -3 -39 3 -66 24 -23 18 -47 27
-65 26 -15 -1 -28 1 -28 5 -1 17 -37 51 -61 57 -23 7 -23 6 -5 -8 11 -9 15
-16 9 -16 -6 0 -17 7 -24 17 -11 13 -11 17 -1 20 17 6 15 23 -4 23 -8 0 -32
16 -52 35 -20 19 -52 41 -69 47 -18 7 -33 16 -33 20 0 4 -9 8 -19 8 -11 0 -28
11 -38 24 -17 21 -83 63 -83 52 0 -11 59 -60 127 -106 117 -79 143 -101 143
-123 0 -19 -2 -19 -32 9 -40 35 -78 58 -78 45 0 -5 16 -19 35 -31 19 -12 35
-23 35 -26 0 -5 -42 11 -81 32 -17 8 -33 13 -36 10 -3 -3 41 -28 98 -54 58
-27 122 -57 142 -67 39 -18 50 -38 20 -34 -10 1 -25 -1 -34 -5 -8 -4 -28 -2
-44 4 -20 8 -30 8 -35 0 -4 -7 -60 -13 -141 -16 -73 -3 -135 -7 -138 -10 -5
-5 124 -7 211 -4 67 2 98 -6 98 -26 0 -19 -50 -18 -97 1 -44 19 -54 19 -29 0
11 -8 17 -17 14 -20 -3 -3 -77 -14 -164 -24 -167 -19 -323 -17 -682 8 -84 6
-244 13 -355 15 -225 5 -204 3 263 -30 124 -8 263 -19 310 -23 l85 -8 -100 -3
c-55 -2 -388 -4 -740 -5 -352 -1 -723 -6 -825 -10 -107 -4 -200 -3 -220 2
l-35 9 60 16 c59 16 59 16 20 17 -22 1 -109 -4 -193 -11 -140 -10 -156 -10
-183 6 -23 14 -72 19 -276 26 -194 8 -250 13 -258 24 -11 15 -58 30 -146 46
-77 14 -222 72 -207 82 8 5 -2 8 -24 8 -20 0 -69 7 -108 15 -48 10 -134 15
-262 16 -180 1 -191 0 -209 -20 -45 -48 -90 -61 -219 -61 l-121 0 -67 -54
c-44 -35 -81 -56 -107 -61 -70 -12 -83 -39 -39 -80 l26 -24 -48 -28 c-51 -30
-67 -44 -120 -111 -23 -30 -32 -51 -29 -65 4 -17 -2 -26 -27 -40 l-33 -19 51
-17 c68 -24 90 -37 108 -63 24 -34 20 -43 -36 -74 l-53 -29 104 -7 c56 -4 106
-9 108 -12 3 -3 -5 -10 -18 -15 -21 -9 -22 -10 -4 -10 11 -1 32 -7 47 -15 61
-32 709 -57 753 -29 11 7 24 13 30 13 5 0 4 -4 -4 -9 -9 -6 -2 -10 23 -13 29
-3 35 -1 31 11 -4 11 -1 10 14 -3 15 -14 29 -17 52 -12 27 5 30 4 19 -9 -10
-12 -10 -15 1 -16 8 -1 1 -5 -16 -9 -16 -4 -80 -5 -141 -2 -104 5 -113 3 -135
-17 -12 -11 -30 -21 -38 -21 -9 0 -23 -5 -31 -10 -11 -7 -1 -10 34 -10 44 0
47 1 35 17 -12 15 -12 16 1 8 8 -4 22 -14 30 -21 11 -9 53 -14 125 -16 94 -3
106 -5 85 -15 l-25 -12 28 0 c54 -2 16 -21 -41 -21 -31 0 -75 -5 -97 -10 -31
-8 -302 -26 -440 -30 -17 0 -17 -2 -5 -10 13 -9 13 -10 0 -11 -8 -1 -21 -1
-27 0 -7 1 -13 -3 -13 -10 0 -8 10 -9 31 -5 25 5 32 2 36 -14 4 -15 14 -20 41
-20 19 0 43 -7 52 -15 16 -14 21 -14 55 2 29 14 39 15 42 6 3 -8 21 -13 41
-13 28 0 33 3 22 10 -13 9 -13 11 0 20 27 18 63 23 81 11 25 -15 32 -14 25 5
-5 13 -1 15 18 10 15 -3 26 -1 28 6 6 16 111 23 134 8 18 -10 17 -11 -3 -7
-13 3 -26 1 -29 -4 -3 -5 -15 -9 -26 -9 -42 0 -10 -10 63 -21 41 -5 79 -10 84
-10 6 1 42 3 82 5 59 4 71 2 66 -9 -7 -21 -69 -35 -119 -28 -39 5 -44 3 -44
-13 0 -17 -10 -19 -96 -22 -68 -3 -109 -10 -141 -24 -38 -17 -49 -18 -74 -8
-42 18 -166 -1 -153 -22 4 -6 -1 -17 -11 -24 -15 -11 40 -13 318 -10 184 2
341 0 348 -5 7 -4 19 -4 25 2 7 6 15 4 23 -5 11 -13 -6 -15 -133 -15 -143 0
-197 -8 -146 -22 17 -5 7 -7 -33 -8 -51 -1 -92 11 -107 31 -7 10 -50 -2 -50
-13 0 -5 16 -9 35 -9 19 0 35 -5 35 -11 0 -6 -7 -8 -17 -5 -10 4 -14 4 -10 -1
10 -9 -147 -52 -195 -53 -56 0 -52 -28 5 -32 l42 -3 -42 -14 c-65 -21 -53 -34
25 -27 74 7 330 52 378 67 17 5 39 9 49 9 34 0 1 -17 -55 -28 -64 -12 -161
-32 -313 -63 -97 -20 -110 -25 -118 -47 -14 -38 1 -45 99 -50 65 -3 96 0 118
10 43 22 130 31 170 18 19 -7 32 -16 29 -21 -8 -12 8 -12 20 0 6 6 51 15 100
21 50 6 142 20 205 30 162 26 285 36 276 21 -4 -6 -14 -11 -22 -11 -8 0 -12
-5 -9 -10 3 -6 18 -7 33 -4 41 10 48 17 26 25 -14 6 -8 8 21 9 99 4 217 18
223 27 9 13 66 27 58 14 -7 -10 16 -21 45 -21 10 0 29 10 40 21 17 17 29 20
60 16 22 -3 39 -2 39 1 0 4 24 8 53 10 28 2 68 11 88 21 34 18 59 21 314 35
28 2 61 8 75 14 28 12 262 41 380 46 41 2 185 11 319 20 134 9 252 14 263 11
10 -4 24 -2 31 3 7 5 66 15 132 21 66 7 139 17 162 22 23 5 67 9 97 9 30 0 58
5 61 10 8 13 42 13 47 1 2 -6 33 -6 78 -2 l75 8 -60 3 c-59 3 -59 3 25 10 54
5 87 4 91 -2 4 -6 28 -7 60 -4 30 4 77 7 105 6 36 0 53 4 57 14 4 11 14 12 41
6 19 -4 38 -4 44 2 5 5 20 10 33 12 14 1 30 6 37 10 17 10 133 -4 126 -16 -4
-5 -15 -8 -25 -5 -10 3 -22 1 -25 -4 -7 -13 107 -11 126 2 12 8 10 9 -9 7 -14
-2 -26 3 -29 11 -3 9 1 11 14 7 11 -3 48 -8 84 -12 53 -5 63 -4 53 7 -20 21
-15 29 17 29 17 0 30 -4 30 -9 0 -11 92 6 99 18 4 5 23 7 43 6 28 -3 35 0 31
11 -4 11 6 14 48 13 54 -2 54 -2 14 -9 -22 -4 -33 -8 -25 -9 8 -1 2 -8 -15
-16 l-30 -13 26 -1 c22 -1 39 -17 39 -37 0 -2 -14 -11 -31 -19 -17 -9 -29 -19
-26 -21 2 -3 21 5 41 17 20 12 39 19 43 16 3 -4 -6 -11 -20 -18 -26 -12 -74
-69 -58 -69 12 0 79 38 102 57 17 14 127 29 262 36 71 4 95 -3 65 -17 -7 -4
-3 -4 10 -2 30 6 28 -1 -9 -20 -25 -12 -37 -14 -56 -5 -30 14 -36 14 -28 1 4
-6 -8 -10 -29 -10 -19 0 -38 -4 -41 -10 -3 -6 4 -10 16 -10 22 0 21 -2 -10
-34 l-32 -33 -142 -2 c-143 -2 -210 -12 -223 -33 -5 -8 -1 -9 12 -3 30 13 128
18 190 10 l56 -7 -34 -23 c-19 -13 -62 -32 -95 -43 -62 -21 -140 -59 -95 -47
12 4 22 3 22 -2 -1 -10 -92 -53 -113 -53 -10 0 -17 -4 -17 -9 0 -13 -175 -96
-245 -116 -33 -10 -82 -24 -110 -33 -27 -8 -57 -17 -65 -19 -8 -2 19 14 60 36
41 22 88 40 103 41 15 0 30 6 33 14 6 17 115 58 164 62 30 2 67 30 56 41 -2 2
-75 -23 -162 -57 -87 -33 -164 -58 -172 -55 -14 5 -56 -18 -48 -26 3 -3 -61
-29 -140 -59 -80 -30 -148 -59 -151 -63 -13 -21 15 -26 60 -13 26 8 47 10 47
5 0 -13 -71 -43 -178 -75 -48 -14 -139 -43 -202 -65 -63 -21 -155 -46 -203
-54 -48 -8 -120 -26 -160 -40 -40 -13 -110 -32 -157 -40 -88 -17 -127 -35 -74
-35 16 0 75 11 132 25 57 14 118 25 137 25 56 0 220 48 418 121 104 39 195 68
204 65 8 -4 27 4 42 17 16 13 75 38 132 56 57 19 127 44 154 57 214 99 678
277 1141 439 172 60 202 58 128 -6 -25 -22 -54 -39 -65 -39 -29 0 -59 -18 -59
-36 0 -11 7 -13 28 -8 l27 7 -24 -27 c-14 -14 -30 -26 -36 -26 -7 0 -20 -8
-29 -19 -9 -10 -29 -21 -44 -24 -32 -7 -70 -33 -60 -42 3 -4 20 1 37 9 50 26
46 19 -31 -54 -40 -38 -95 -92 -123 -119 -58 -58 -119 -94 -99 -58 4 7 3 9 -2
4 -5 -5 -9 -13 -9 -17 0 -14 -205 -141 -237 -147 -15 -3 -28 -9 -28 -14 0 -5
-7 -9 -15 -9 -28 0 -96 -40 -89 -52 4 -7 3 -8 -5 -4 -6 4 -26 -1 -44 -12 -17
-11 -71 -37 -119 -57 -49 -21 -88 -43 -88 -50 0 -15 -85 -63 -227 -128 -100
-46 -187 -97 -164 -97 6 0 50 16 98 35 48 19 95 35 105 35 10 0 18 4 18 9 0 4
21 16 47 26 25 10 60 31 77 48 29 27 80 65 130 95 12 7 32 10 46 7 18 -4 21
-3 11 4 -11 7 -5 14 27 30 46 23 77 28 52 8 -18 -13 -15 -47 3 -47 7 1 23 7
37 15 14 8 34 14 45 14 18 0 19 -1 2 -8 -10 -4 -17 -11 -16 -16 1 -6 -6 -12
-16 -14 -11 -2 -31 -16 -46 -32 -15 -16 -35 -29 -46 -29 -19 -1 -95 -39 -78
-40 12 -1 -25 -30 -38 -30 -4 0 -5 5 -1 12 5 8 2 9 -12 3 -10 -4 -30 -10 -44
-12 -14 -3 -45 -15 -70 -28 -60 -31 -109 -44 -60 -16 43 25 34 27 -15 4 -79
-38 -20 -45 76 -9 35 13 73 27 84 31 33 12 -86 -63 -142 -90 -54 -25 -73 -42
-28 -25 16 6 25 6 25 0 0 -6 -6 -10 -12 -10 -10 0 -9 -3 1 -9 16 -10 4 -20
-44 -36 -21 -7 -31 -17 -32 -35 -3 -25 -3 -25 7 -3 5 14 18 23 30 23 12 0 45
16 74 35 29 19 61 35 70 35 9 0 28 7 41 16 17 11 25 12 25 5 0 -7 -13 -17 -29
-22 -16 -6 -32 -17 -35 -25 -4 -11 1 -11 27 3 17 9 34 18 37 18 3 0 20 9 38
18 17 10 32 15 32 12 0 -3 17 6 38 21 l37 26 -29 -27 c-27 -24 -28 -28 -13
-43 9 -9 20 -12 24 -8 4 4 1 11 -7 16 -13 8 -12 10 3 10 9 0 17 5 17 10 0 19
31 10 39 -12 12 -33 -20 -62 -58 -53 -19 4 -34 1 -44 -9 -17 -18 -32 -21 -22
-6 13 21 -27 22 -55 1 -16 -11 -34 -21 -40 -21 -6 0 -15 -12 -21 -27 -10 -26
-12 -27 -23 -11 -14 19 -32 24 -38 11 -4 -11 -53 -40 -125 -73 -34 -16 -65
-35 -69 -41 -10 -18 32 -1 114 43 82 45 111 46 35 1 -42 -24 -45 -28 -25 -31
13 -2 35 4 48 13 14 9 33 14 41 11 11 -4 13 -2 9 9 -3 9 0 15 10 15 17 0 74
55 74 72 0 9 3 9 11 1 6 -6 18 -9 25 -6 31 12 11 -9 -21 -23 -20 -8 -33 -19
-30 -24 3 -5 -4 -14 -15 -20 -11 -6 -20 -19 -20 -29 0 -10 -10 -26 -22 -34
-19 -13 -20 -16 -6 -16 9 -1 19 3 23 9 3 5 13 7 23 4 13 -5 14 -4 3 4 -10 7 0
14 40 25 29 9 55 15 57 13 2 -2 -8 -16 -22 -31 -15 -16 -26 -33 -26 -39 -1
-14 -43 -62 -60 -68 -7 -2 -14 -12 -16 -21 -3 -23 -60 -101 -101 -140 -18 -17
-33 -39 -33 -49 0 -10 -7 -21 -15 -24 -8 -4 -15 -13 -15 -22 0 -8 -7 -24 -17
-34 -18 -20 -5 -25 17 -5 39 36 -36 -64 -104 -138 -43 -47 -77 -88 -74 -90 3
-3 43 37 90 89 46 52 112 118 146 146 61 51 82 58 40 13 -25 -26 -17 -43 12
-25 30 19 33 14 11 -17 -12 -16 -21 -32 -21 -36 0 -4 -19 -30 -43 -58 -74 -89
-92 -118 -76 -127 7 -5 20 -5 28 0 8 4 25 3 37 -2 18 -8 29 -6 52 11 40 28 50
27 59 -8 l8 -30 75 69 c41 38 78 69 81 70 4 0 9 -10 12 -22 4 -14 -2 -31 -19
-51 -20 -23 -22 -32 -12 -38 24 -15 24 -15 146 98 43 40 69 58 74 50 8 -14 0
-29 -12 -22 -5 3 -14 -5 -21 -17 -6 -13 -35 -48 -63 -79 -74 -82 -128 -149
-120 -149 3 0 66 60 139 133 247 246 311 304 344 312 17 3 31 11 31 16 0 5 4
9 9 9 18 0 -2 -42 -25 -52 -13 -6 -24 -19 -24 -29 0 -10 -4 -21 -10 -24 -13
-8 -13 -25 0 -25 5 0 16 13 22 28 7 16 71 84 143 153 71 68 121 111 111 94
-14 -23 -7 -19 32 19 28 27 49 53 46 57 -6 11 70 82 92 85 11 2 30 17 44 35
24 30 77 85 235 240 39 38 74 69 80 69 5 0 19 12 31 27 13 16 23 22 27 16 4
-6 -37 -52 -92 -103 -101 -92 -153 -153 -114 -131 10 5 46 37 81 70 34 33 62
56 62 50 0 -11 -4 -17 -57 -79 -21 -25 -45 -54 -53 -65 -14 -18 -14 -18 7 -4
12 9 52 43 88 77 36 34 68 61 73 61 4 -1 12 9 19 22 7 13 38 50 70 81 198 194
213 207 228 202 10 -4 15 0 15 14 0 21 37 55 50 47 14 -9 150 136 150 159 0 9
6 16 14 16 8 0 16 7 20 15 3 9 12 12 23 9 13 -4 14 -3 5 3 -10 7 -8 14 8 28
20 18 21 18 14 -1 -5 -15 -1 -13 20 9 15 15 30 27 34 27 5 0 37 28 73 63 227
220 290 274 313 270 19 -4 24 -1 23 14 -1 10 -8 23 -16 29 -11 9 -43 -18 -155
-128 -77 -76 -145 -138 -150 -138 -4 0 -6 9 -3 20 7 26 -5 25 -29 -2 -10 -12
-14 -18 -7 -15 6 4 13 1 16 -5 6 -18 -12 -50 -24 -42 -5 3 -21 -1 -34 -10 -13
-9 -31 -16 -39 -16 -8 0 -25 -15 -37 -32 -13 -18 -32 -41 -44 -51 -61 -54 -71
-64 -84 -72 -12 -7 -12 -5 0 12 31 44 100 113 109 108 5 -3 12 4 15 16 4 12
57 72 117 135 61 63 105 114 97 114 -7 0 -26 -12 -42 -27 -16 -17 -26 -21 -22
-11 9 22 -10 31 -25 13 -7 -8 -18 -15 -24 -15 -6 1 2 11 17 24 17 14 37 21 51
19 15 -3 35 8 69 41 47 46 47 46 77 31 27 -14 30 -14 30 0 0 9 9 15 23 16 l22
1 -22 6 c-18 6 -20 10 -10 23 7 9 26 21 42 27 17 6 24 11 16 11 -21 1 7 31 30
31 23 0 24 8 2 32 -16 18 -16 18 0 12 11 -4 26 1 37 11 18 16 21 16 44 2 21
-14 26 -14 36 -2 11 13 9 15 -11 13 -18 -2 -24 2 -24 17 0 22 2 25 64 77 29
25 48 35 55 29 7 -6 20 -3 36 10 l25 19 -36 -2 c-24 -1 -42 5 -56 19 l-21 21
21 6 c33 9 37 7 37 -9 0 -13 4 -14 20 -5 17 9 35 3 107 -36 47 -25 94 -55 105
-66 21 -21 108 -72 108 -63 0 3 9 1 19 -5 13 -6 21 -6 23 0 2 5 29 -6 61 -25
74 -45 105 -53 113 -30 8 20 -21 47 -148 142 -61 46 -74 59 -60 65 15 6 15 7
1 7 -9 1 -22 7 -28 15 -7 8 -26 17 -44 20 -33 6 -102 55 -79 56 7 0 22 -9 34
-20 12 -11 25 -20 30 -20 4 0 -6 13 -22 29 -36 34 -40 64 -7 59 12 -2 27 3 33
11 8 11 33 15 90 15 66 -1 88 -5 132 -28 57 -29 76 -28 48 3 -16 17 -15 19 6
33 13 8 40 21 61 27 43 15 77 55 59 73 -6 6 -36 13 -66 16 -50 4 -58 8 -107
59 -44 46 -49 54 -29 48 14 -4 39 -9 55 -12 29 -4 29 -4 10 13 -14 11 -16 18
-7 21 21 8 13 36 -20 70 l-31 32 27 11 c15 5 41 10 57 10 34 0 37 12 9 47 -11
14 -17 29 -14 34 3 5 -2 6 -10 3 -16 -6 -32 29 -21 46 3 6 -4 10 -18 10 -18 0
-27 7 -31 25 -4 16 -13 25 -26 25 -26 0 -25 4 6 46 24 31 25 34 8 34 -24 0
-51 17 -42 25 8 8 78 -16 96 -32 20 -19 53 -17 45 3 -5 13 -2 15 15 9 27 -8
62 2 62 18 0 7 -22 20 -49 30 -27 9 -59 26 -72 36 -23 19 -24 19 -5 40 11 12
14 21 7 21 -6 0 -61 22 -123 50 l-111 50 -54 -16 c-45 -13 -57 -14 -70 -2 -9
7 -24 12 -34 10 -11 -2 -46 11 -79 29 -33 18 -63 29 -66 26 -4 -3 14 -16 39
-28 44 -22 66 -53 43 -63 -7 -3 -7 -5 2 -5 23 -2 12 -19 -19 -30 -28 -9 -33
-7 -64 24 -21 23 -39 33 -49 29 -9 -3 -16 -1 -16 5 0 6 5 11 10 11 25 0 6 18
-41 38 -29 12 -48 25 -44 32 3 6 -3 10 -14 10 -12 0 -29 8 -39 18 -10 10 -27
22 -36 25 -15 6 -16 10 -6 22 7 9 11 16 9 18 -53 30 -52 30 -46 7 5 -20 3 -22
-27 -17 -17 3 -46 19 -64 35 -29 27 -31 32 -17 46 8 8 11 17 6 21 -5 3 -13 1
-16 -5 -4 -7 -11 -8 -18 -2 -7 5 -33 14 -60 20 -43 9 -46 8 -35 -6 11 -14 10
-15 -7 -8 -11 5 -27 9 -35 10 -8 1 -26 8 -40 15 -23 13 -24 15 -5 21 18 7 16
9 -10 14 -16 4 -41 14 -55 22 -14 8 -41 22 -60 31 -19 8 -47 24 -62 34 -18 14
-27 16 -30 7 -3 -7 -17 0 -39 20 -19 18 -56 44 -84 58 -27 14 -60 31 -72 38
-12 6 -24 19 -25 30 -2 12 -60 52 -164 115 -89 53 -178 109 -197 124 -20 15
-38 27 -41 27 -3 0 -46 29 -95 65 -50 36 -96 65 -103 65 -23 0 -152 54 -185
78 -17 12 -38 22 -46 22 -8 0 -31 11 -51 25 -20 14 -43 25 -50 25 -20 0 -98
60 -103 78 -2 10 -20 27 -39 40 -28 18 -38 20 -55 11 -16 -8 -25 -7 -40 7 -17
16 -19 16 -19 1 0 -19 -15 -23 -25 -7 -4 6 -21 8 -41 4 -27 -5 -42 0 -81 25
-49 32 -63 37 -63 22z m-269 -182 c17 -32 -4 -46 -30 -20 -12 12 -21 26 -21
31 0 19 39 10 51 -11z m-371 -14 c13 -14 21 -27 18 -30 -3 -3 -11 1 -18 10 -7
8 -19 15 -26 15 -8 0 -14 7 -14 15 0 22 13 18 40 -10z m292 -8 c7 -7 29 -22
48 -34 20 -12 47 -34 60 -49 22 -24 22 -26 5 -19 -20 8 -35 12 -115 37 -27 8
-44 19 -42 27 1 7 -2 19 -8 26 -19 23 29 34 52 12z m-42 -272 c22 -14 43 -25
47 -25 10 -1 89 -60 79 -60 -4 0 -16 5 -27 10 -12 7 -19 7 -19 1 0 -6 19 -16
43 -22 23 -7 51 -19 62 -27 19 -13 19 -14 -4 -7 -18 6 -23 4 -19 -6 4 -11 -5
-14 -40 -13 -40 1 -49 5 -78 39 -17 21 -30 44 -28 50 3 6 -20 23 -51 38 -30
15 -55 31 -55 37 0 19 50 10 90 -15z m-123 -31 c-3 -3 -12 -4 -19 -1 -8 3 -5
6 6 6 11 1 17 -2 13 -5z m463 -99 c28 -14 50 -30 50 -35 0 -15 -16 -12 -30 5
-7 8 -18 15 -24 15 -13 0 -65 39 -53 40 4 0 30 -11 57 -25z m-84 -30 c4 -8 13
-15 21 -15 18 0 93 -42 93 -53 0 -5 -4 -6 -9 -3 -5 4 -12 0 -14 -6 -4 -9 -6
-7 -6 3 -1 11 -22 23 -61 37 -33 11 -60 18 -60 15 0 -2 24 -15 53 -28 41 -19
47 -24 26 -24 -14 -1 -34 5 -45 13 -10 8 -29 12 -42 9 -24 -6 -47 9 -64 41 -9
17 -8 19 3 9 18 -18 54 -16 69 2 7 8 17 15 22 15 5 0 11 -7 14 -15z m-306 -35
c0 -5 -4 -10 -9 -10 -6 0 -13 5 -16 10 -3 6 1 10 9 10 9 0 16 -4 16 -10z m506
-6 c19 -15 19 -15 -1 -6 -11 5 -27 12 -35 15 -13 5 -13 6 1 6 8 1 24 -6 35
-15z m1299 -34 c3 -6 -1 -7 -9 -4 -18 7 -21 14 -7 14 6 0 13 -4 16 -10z
m-1355 -10 c0 -5 -4 -10 -10 -10 -5 0 -10 5 -10 10 0 6 5 10 10 10 6 0 10 -4
10 -10z m90 -5 c17 -20 61 -20 54 0 -5 11 -2 13 10 9 10 -4 15 -13 12 -20 -5
-14 20 -37 73 -66 17 -9 31 -24 31 -32 0 -11 -7 -8 -25 9 -13 14 -31 25 -40
25 -19 0 -101 42 -135 69 -19 16 -21 21 -9 21 9 0 22 -7 29 -15z m-496 -271
c26 -15 45 -29 42 -31 -3 -3 -29 9 -58 26 -64 37 -50 42 16 5z m2125 -38 c10
-12 8 -13 -8 -9 -12 3 -18 9 -15 14 7 12 10 11 23 -5z m122 -105 c0 -14 3 -20
6 -13 2 6 9 12 14 12 4 0 6 -6 3 -14 -4 -11 6 -16 40 -21 27 -4 43 -11 40 -17
-4 -6 -1 -8 7 -6 8 3 22 1 33 -4 12 -7 16 -7 12 0 -3 6 0 12 6 15 8 3 6 7 -7
12 -49 17 -69 28 -58 32 6 2 68 -14 137 -36 l126 -39 79 -80 c44 -44 82 -77
86 -74 3 3 11 7 18 8 7 1 20 5 30 9 12 5 17 2 17 -9 0 -9 -5 -16 -11 -16 -6 0
-26 -16 -43 -35 -30 -33 -34 -34 -52 -19 -19 15 -18 15 3 11 31 -7 36 16 10
44 -19 20 -22 21 -25 6 -2 -9 -8 -17 -13 -17 -5 0 -8 -3 -8 -7 3 -20 -2 -24
-16 -13 -19 15 -58 19 -66 6 -4 -5 -18 -6 -31 -3 -26 7 -110 68 -103 75 2 3
10 1 17 -4 17 -12 62 -12 66 1 2 5 -10 13 -25 16 -15 3 -54 18 -85 33 -32 15
-60 26 -64 24 -3 -2 -12 11 -19 27 -9 19 -14 24 -14 12 -1 -14 -10 -11 -53 19
-78 54 -112 84 -120 105 -7 17 -6 17 27 2 26 -12 35 -23 36 -42z m113 32 c5
-12 9 -13 21 -3 11 9 24 6 65 -16 73 -40 84 -58 24 -37 -27 8 -53 20 -58 24
-6 5 -17 9 -26 9 -9 0 -27 11 -41 26 -16 17 -18 23 -7 19 9 -4 19 -13 22 -22z
m221 -73 c20 -23 17 -24 -19 -10 -14 5 -26 14 -26 20 0 17 26 11 45 -10z
m-2240 -130 c8 -13 -5 -13 -25 0 -13 8 -13 10 2 10 9 0 20 -4 23 -10z m2371
-135 c26 -19 -1 -20 -36 0 -23 13 -23 14 -4 15 11 0 29 -7 40 -15z m-2218 -49
c-1 -14 -6 -22 -10 -20 -12 7 -10 44 2 44 5 0 9 -11 8 -24z m2617 -46 c-3 -5
-10 -10 -16 -10 -5 0 -9 5 -9 10 0 6 7 10 16 10 8 0 12 -4 9 -10z m160 -18
c-7 -8 -35 7 -35 18 0 6 7 6 20 -2 10 -7 17 -14 15 -16z m-2720 3 c6 -2 -11
-4 -37 -4 -27 -1 -48 3 -48 7 0 7 62 5 85 -3z m2578 -12 c-7 -2 -21 -2 -30 0
-10 3 -4 5 12 5 17 0 24 -2 18 -5z m-2903 -7 c0 -2 -13 -6 -30 -8 -16 -3 -30
-1 -30 4 0 4 14 8 30 8 17 0 30 -2 30 -4z m2955 -8 c24 -11 27 -14 29 -39 1
-16 -126 -51 -139 -38 -7 7 -3 8 10 3 16 -6 18 -5 7 7 -10 11 -8 16 10 26 13
7 17 12 11 13 -25 0 -13 20 12 20 14 0 25 5 25 10 0 13 3 13 35 -2z m-2917
-45 c3 -10 -13 -13 -57 -13 -72 0 -91 17 -24 23 66 5 76 4 81 -10z m61 14 c-2
-1 -12 -9 -21 -16 -15 -12 -18 -11 -18 3 0 10 8 16 22 16 12 0 19 -1 17 -3z
m31 -12 c0 -8 -9 -15 -20 -15 -17 0 -19 2 -8 15 17 19 28 19 28 0z m-221 -22
c2 -2 -54 -2 -125 -2 l-129 2 99 8 c54 4 103 10 110 12 6 2 18 -1 26 -7 8 -5
17 -12 19 -13z m-13 -45 c9 -15 -257 -15 -396 1 -57 6 -18 8 158 8 128 0 235
-4 238 -9z m67 5 c-7 -2 -19 -2 -25 0 -7 3 -2 5 12 5 14 0 19 -2 13 -5z m-625
-10 c-10 -2 -28 -2 -40 0 -13 2 -5 4 17 4 22 1 32 -1 23 -4z m3740 -61 c2 -8
-9 -12 -35 -12 -38 0 -38 0 -13 14 28 16 42 15 48 -2z m-3464 -33 c-6 -11
-121 -12 -127 -1 -3 4 26 8 64 8 38 1 66 -2 63 -7z m-582 -16 c15 -14 18 -14
13 -2 -5 13 7 16 77 16 46 0 75 -2 66 -4 -28 -7 -21 -23 10 -24 26 0 26 -1 4
-9 -43 -18 -193 -14 -256 6 -51 16 -56 20 -35 25 46 13 102 9 121 -8z m287 13
c-10 -9 -79 -14 -74 -5 4 5 22 9 42 9 20 0 34 -2 32 -4z m144 -3 c-7 -2 -19
-2 -25 0 -7 3 -2 5 12 5 14 0 19 -2 13 -5z m-624 -13 c9 -5 3 -12 -19 -24 -40
-20 -50 -20 -50 -2 0 18 -120 29 -175 16 -22 -5 -51 -6 -65 -3 l-25 7 25 7
c34 10 294 9 309 -1z m1 -60 c0 -5 -5 -10 -11 -10 -5 0 -7 5 -4 10 3 6 8 10
11 10 2 0 4 -4 4 -10z m-135 -10 c-3 -5 -16 -10 -28 -9 -20 1 -20 2 3 9 14 4
26 8 28 9 2 1 0 -3 -3 -9z m-2528 -405 c2 -5 -10 -10 -27 -10 -30 0 -36 5 -23
19 10 10 46 3 50 -9z m-97 -5 c0 -5 -4 -10 -10 -10 -5 0 -10 5 -10 10 0 6 5
10 10 10 6 0 10 -4 10 -10z m400 -16 c0 -15 -96 -27 -118 -15 -14 8 -15 10 -2
15 45 16 120 16 120 0z m88 7 c6 0 12 -5 12 -11 0 -16 -66 -12 -80 5 -11 13
-8 14 21 11 19 -2 40 -4 47 -5z m-531 -53 c23 -9 25 -12 9 -16 -27 -6 -106 8
-106 19 0 13 63 11 97 -3z m113 3 c-20 -5 -22 -9 -10 -16 11 -7 8 -11 -15 -16
-21 -6 -31 -4 -41 9 -11 15 -9 18 14 23 15 4 38 7 52 7 l25 0 -25 -7z m6400
-30 c0 -8 -50 -31 -69 -31 -11 0 -6 8 14 24 26 21 55 25 55 7z m-6222 -43 c-3
-7 -10 -13 -16 -12 -7 1 -28 2 -48 3 -52 2 -32 21 22 21 32 0 44 -4 42 -12z
m52 2 c0 -5 -9 -10 -20 -10 -11 0 -20 5 -20 10 0 6 9 10 20 10 11 0 20 -4 20
-10z m80 0 c0 -12 -35 -31 -44 -23 -15 15 -4 33 19 33 14 0 25 -4 25 -10z
m-295 -32 c11 0 34 3 50 6 17 3 24 3 18 0 -7 -3 -13 -12 -13 -20 0 -10 -12
-14 -41 -14 -24 0 -38 -4 -34 -10 3 -5 18 -10 32 -10 15 0 23 -3 19 -7 -13
-13 -200 -2 -215 12 -8 8 -12 18 -8 21 10 10 140 32 157 26 8 -3 24 -5 35 -4z
m6315 2 c0 -5 -7 -10 -16 -10 -8 0 -12 5 -9 10 3 6 10 10 16 10 5 0 9 -4 9
-10z m-6155 -20 c-11 -5 -29 -9 -40 -9 -17 -1 -17 1 -5 9 8 5 26 9 40 9 23 0
23 -1 5 -9z m3395 -59 c0 -15 -33 -22 -44 -10 -8 9 -8 10 1 5 6 -3 14 -2 18 4
8 12 25 13 25 1z m70 -1 c-20 -13 -60 -13 -60 0 0 6 17 10 38 10 27 0 33 -3
22 -10z m-3542 -16 c6 3 14 1 17 -5 5 -7 -1 -9 -16 -7 -12 1 -24 10 -26 18 -4
12 -3 13 5 1 5 -7 14 -11 20 -7z m3357 6 c-3 -6 -42 -9 -88 -8 l-82 1 65 7
c105 11 112 11 105 0z m-2830 -20 c3 -5 -1 -10 -10 -10 -9 0 -13 5 -10 10 3 6
8 10 10 10 2 0 7 -4 10 -10z m50 0 c-3 -5 -10 -10 -16 -10 -5 0 -9 5 -9 10 0
6 7 10 16 10 8 0 12 -4 9 -10z m115 -12 c30 -5 62 -12 70 -15 8 -4 21 -7 27
-7 24 -2 12 -21 -20 -33 l-32 -11 38 -1 c20 -1 37 -5 37 -9 0 -4 12 -7 28 -6
15 1 27 2 27 4 0 1 23 3 50 5 28 1 40 1 28 -2 -13 -2 -23 -8 -23 -13 0 -5 -15
-12 -34 -16 -19 -3 -37 -12 -40 -20 -3 -9 -20 -14 -43 -14 -27 0 -34 3 -23 9
8 6 17 8 21 5 4 -2 10 0 14 6 4 6 -6 10 -24 10 -16 0 -33 5 -36 10 -3 6 -11
10 -17 10 -6 0 -3 -8 6 -19 15 -17 15 -20 1 -34 -22 -22 -19 -27 15 -27 17 0
30 -4 30 -9 0 -15 -33 -23 -87 -21 -33 1 -53 -3 -53 -10 0 -8 -6 -8 -21 1 -17
8 -23 8 -29 -1 -4 -7 -32 -15 -61 -17 -40 -3 -50 -2 -39 6 12 8 8 11 -19 11
-27 0 -32 3 -29 18 4 13 -2 17 -24 19 -28 2 -38 -11 -15 -21 6 -3 3 -4 -8 -3
-11 2 -19 9 -17 16 2 9 -3 11 -13 8 -8 -4 -25 -2 -37 3 -13 5 -18 9 -11 9 14
1 63 45 63 56 0 4 -24 5 -52 3 -29 -3 -45 -3 -35 -1 9 2 17 9 17 14 0 5 24 9
54 9 34 0 60 5 69 14 8 9 24 12 36 9 11 -3 28 0 36 7 9 7 18 10 22 7 3 -4 12
-2 18 3 12 10 41 13 84 8 13 -2 26 3 28 10 3 8 -9 12 -39 13 -23 1 -34 4 -24
6 15 4 16 7 5 15 -10 7 -9 8 6 3 11 -3 45 -11 75 -17z m437 16 c-3 -3 -12 -4
-19 -1 -8 3 -5 6 6 6 11 1 17 -2 13 -5z m53 -10 c0 -2 -7 -4 -15 -4 -8 0 -15
4 -15 10 0 5 7 7 15 4 8 -4 15 -8 15 -10z m3654 -23 c7 -11 10 -10 -218 -87
-104 -35 -193 -61 -197 -59 -4 3 -9 1 -11 -4 -2 -7 -216 -92 -343 -136 -25 -9
117 74 206 121 36 19 74 34 85 34 15 0 20 7 19 28 0 25 4 28 50 37 48 9 84 35
85 63 0 9 39 12 159 12 88 0 162 -4 165 -9z m1258 -13 c-7 -7 -12 -8 -12 -2 0
14 12 26 19 19 2 -3 -1 -11 -7 -17z m-5212 8 c0 -2 -7 -6 -15 -10 -8 -3 -15
-1 -15 4 0 6 7 10 15 10 8 0 15 -2 15 -4z m1393 -23 c-7 -2 -21 -2 -30 0 -10
3 -4 5 12 5 17 0 24 -2 18 -5z m-124 -17 c-7 -6 -114 -17 -107 -11 3 4 28 10
55 14 45 7 62 6 52 -3z m-2802 -42 c-3 -3 -12 -4 -19 -1 -8 3 -5 6 6 6 11 1
17 -2 13 -5z m888 -20 c0 -5 -22 -10 -50 -11 -27 -1 -42 1 -32 4 9 2 17 8 17
13 0 4 15 7 33 5 17 -1 32 -6 32 -11z m-135 -14 c0 -5 -6 -10 -14 -10 -8 0
-18 5 -21 10 -3 6 3 10 14 10 12 0 21 -4 21 -10z m1190 -5 c0 -8 -7 -15 -16
-15 -14 0 -14 3 -4 15 7 8 14 15 16 15 2 0 4 -7 4 -15z m-953 -1 c-3 -3 -12
-4 -19 -1 -8 3 -5 6 6 6 11 1 17 -2 13 -5z m663 -17 c-25 -5 -50 -13 -56 -18
-6 -5 -15 -4 -22 3 -8 8 -18 8 -34 1 -13 -6 -32 -7 -43 -2 -25 9 -29 8 85 23
100 13 147 8 70 -7z m-693 -33 c-3 -3 -12 -4 -19 -1 -8 3 -5 6 6 6 11 1 17 -2
13 -5z m-197 -22 c0 -10 -143 -32 -203 -32 -46 0 -46 22 -1 31 44 10 204 10
204 1z m5639 -128 c-70 -71 -156 -136 -141 -106 5 9 7 22 5 29 -6 17 18 28 28
12 6 -11 9 -10 15 4 3 9 10 17 15 17 5 0 37 27 71 60 34 33 64 58 67 55 2 -3
-24 -35 -60 -71z m-4985 51 c-4 -8 -10 -12 -15 -9 -11 6 -2 24 11 24 5 0 7 -7
4 -15z m-754 -35 c-49 -16 -181 -42 -186 -38 -6 7 153 46 186 46 l25 0 -25 -8z
m5694 -15 c-4 -8 -13 -15 -21 -15 -13 0 -13 3 -3 15 7 8 16 15 21 15 5 0 6 -7
3 -15z m-1089 -5 c-3 -5 -12 -10 -18 -10 -7 0 -6 4 3 10 19 12 23 12 15 0z
m-76 -76 c-49 -51 -95 -82 -70 -48 21 28 105 103 110 98 3 -2 -15 -25 -40 -50z
m-5124 26 c-3 -5 -12 -10 -18 -10 -7 0 -6 4 3 10 19 12 23 12 15 0z m6073
-152 c-18 -18 -35 -32 -37 -30 -7 4 51 62 62 62 5 0 -6 -15 -25 -32z m-1308
-136 c0 -8 -64 -42 -78 -42 -6 1 69 50 76 50 1 0 2 -4 2 -8z m1245 -2 c-3 -5
-11 -10 -16 -10 -6 0 -7 5 -4 10 3 6 11 10 16 10 6 0 7 -4 4 -10z m-1135 -20
c0 -5 -4 -10 -10 -10 -5 0 -10 5 -10 10 0 6 5 10 10 10 6 0 10 -4 10 -10z
m-93 -78 c-10 -10 -14 -22 -10 -27 5 -4 3 -5 -3 -2 -12 7 -38 -16 -28 -25 3
-3 0 -9 -7 -14 -8 -5 -10 -3 -4 6 5 9 4 11 -4 6 -7 -5 -16 -19 -21 -32 -6 -14
-18 -27 -27 -30 -10 -3 -30 -12 -45 -20 -47 -25 -41 -15 33 61 41 41 82 75 91
75 9 0 20 5 23 10 3 6 9 10 12 10 3 0 -1 -8 -10 -18z m-141 -70 c-20 -19 -39
-32 -42 -30 -2 3 2 11 11 18 8 7 15 17 15 23 0 14 33 36 44 30 5 -3 -8 -21
-28 -41z m1144 -45 c0 -2 -10 -12 -21 -23 -22 -19 -22 -19 -8 4 12 19 29 30
29 19z m10 -38 c-19 -17 -56 -51 -82 -76 -27 -25 -48 -41 -48 -35 0 12 141
141 155 141 6 0 -6 -13 -25 -30z m-60 -9 c0 -5 -5 -10 -11 -10 -5 0 -7 5 -4
10 3 6 8 10 11 10 2 0 4 -4 4 -10z m-1200 -169 c-11 -22 -29 -35 -36 -28 -7 6
27 47 39 47 4 0 3 -9 -3 -19z m-103 -127 c-3 -3 -12 -4 -19 -1 -8 3 -5 6 6 6
11 1 17 -2 13 -5z m-87 -54 c0 -5 -2 -10 -4 -10 -3 0 -8 5 -11 10 -3 6 -1 10
4 10 6 0 11 -4 11 -10z m-60 -369 c0 -14 -49 -43 -61 -35 -14 9 19 44 43 44
10 0 18 -4 18 -9z m-150 -65 c0 -3 -4 -8 -10 -11 -5 -3 -10 -1 -10 4 0 6 5 11
10 11 6 0 10 -2 10 -4z"/>
<path d="M5070 4110 c0 -5 7 -10 16 -10 8 0 12 5 9 10 -3 6 -10 10 -16 10 -5
0 -9 -4 -9 -10z"/>
<path d="M7541 3453 c1 -11 69 -67 74 -61 3 3 -13 19 -35 37 -22 17 -40 28
-39 24z"/>
<path d="M7565 3360 c-3 -5 -2 -10 4 -10 5 0 13 5 16 10 3 6 2 10 -4 10 -5 0
-13 -4 -16 -10z"/>
<path d="M2025 2090 c3 -5 10 -10 16 -10 5 0 9 5 9 10 0 6 -7 10 -16 10 -8 0
-12 -4 -9 -10z"/>
<path d="M2225 2050 c3 -5 10 -10 16 -10 5 0 9 5 9 10 0 6 -7 10 -16 10 -8 0
-12 -4 -9 -10z"/>
<path d="M2100 2021 c0 -22 27 -48 38 -36 4 4 1 10 -5 12 -20 7 -15 23 10 33
20 8 19 9 -10 9 -26 1 -33 -3 -33 -18z"/>
<path d="M2030 2020 c-13 -9 -13 -10 0 -9 8 0 24 4 35 9 l20 9 -20 0 c-11 0
-27 -4 -35 -9z"/>
<path d="M1850 1989 c0 -5 5 -7 10 -4 6 3 10 8 10 11 0 2 -4 4 -10 4 -5 0 -10
-5 -10 -11z"/>
<path d="M2050 1984 c-14 -3 -44 -7 -67 -10 -25 -3 -43 -11 -43 -18 0 -9 21
-11 88 -8 83 4 159 20 105 21 -12 1 -25 6 -28 11 -6 10 -10 10 -55 4z"/>
<path d="M5970 2060 c8 -5 24 -10 35 -10 17 0 17 2 5 10 -8 5 -24 10 -35 10
-17 0 -17 -2 -5 -10z"/>
<path d="M5960 4654 c28 -19 54 -34 56 -31 5 5 -88 67 -100 67 -5 0 15 -16 44
-36z"/>
<path d="M5817 4587 c-4 -10 3 -21 19 -31 13 -9 24 -12 24 -6 0 5 -5 10 -10
10 -6 0 -14 10 -19 22 -6 17 -9 18 -14 5z"/>
<path d="M6155 4490 c-8 -14 9 -34 23 -29 7 3 6 11 -3 22 -9 13 -15 15 -20 7z"/>
<path d="M6410 4436 c0 -3 14 -12 30 -21 17 -9 30 -13 30 -11 0 3 -13 12 -30
21 -16 9 -30 13 -30 11z"/>
<path d="M6480 4250 c0 -15 25 -27 43 -21 14 5 12 8 -13 18 -16 6 -30 8 -30 3z"/>
<path d="M6560 4240 c8 -5 20 -10 25 -10 6 0 3 5 -5 10 -8 5 -19 10 -25 10 -5
0 -3 -5 5 -10z"/>
<path d="M6565 4210 c3 -5 8 -10 11 -10 2 0 4 5 4 10 0 6 -5 10 -11 10 -5 0
-7 -4 -4 -10z"/>
<path d="M6665 4180 c3 -5 11 -10 16 -10 6 0 7 5 4 10 -3 6 -11 10 -16 10 -6
0 -7 -4 -4 -10z"/>
<path d="M6630 4175 c0 -2 10 -10 23 -16 20 -11 21 -11 8 4 -13 16 -31 23 -31
12z"/>
<path d="M4824 4134 c3 -9 6 -18 6 -20 0 -2 7 -4 15 -4 13 0 14 4 5 20 -13 24
-35 27 -26 4z"/>
<path d="M4620 3980 c19 -11 42 -19 50 -19 8 0 -3 9 -25 19 -53 24 -70 24 -25
0z"/>
<path d="M4500 3920 c20 -13 43 -13 35 0 -3 6 -16 10 -28 10 -18 0 -19 -2 -7
-10z"/>
<path d="M7359 3726 c29 -31 35 -33 22 -7 -6 10 -18 22 -28 25 -13 5 -11 1 6
-18z"/>
<path d="M4660 3685 c-10 -13 -9 -15 11 -15 20 0 21 2 9 11 -11 8 -7 9 18 5
20 -4 31 -2 27 4 -9 15 -51 12 -65 -5z"/>
<path d="M4912 3666 c-4 -7 -14 -16 -22 -19 -8 -3 3 -5 25 -3 21 2 41 8 42 13
6 16 -36 23 -45 9z"/>
<path d="M4795 3640 c3 -5 8 -10 11 -10 2 0 4 5 4 10 0 6 -5 10 -11 10 -5 0
-7 -4 -4 -10z"/>
<path d="M4568 3633 c6 -2 18 -2 25 0 6 3 1 5 -13 5 -14 0 -19 -2 -12 -5z"/>
<path d="M5020 3609 c0 -12 25 -22 41 -17 6 2 0 9 -15 16 -16 7 -26 8 -26 1z"/>
<path d="M4659 3460 c22 -38 134 -170 139 -165 2 2 -25 37 -60 77 -34 40 -71
84 -81 98 -13 18 -13 15 2 -10z"/>
<path d="M4875 3450 c-3 -5 1 -10 10 -10 9 0 13 5 10 10 -3 6 -8 10 -10 10 -2
0 -7 -4 -10 -10z"/>
<path d="M8290 3450 c0 -5 9 -10 21 -10 11 0 17 5 14 10 -3 6 -13 10 -21 10
-8 0 -14 -4 -14 -10z"/>
<path d="M631 3329 c-13 -5 -22 -11 -19 -14 5 -5 78 14 78 20 0 8 -33 4 -59
-6z"/>
<path d="M8385 3330 c3 -5 8 -10 11 -10 2 0 4 5 4 10 0 6 -5 10 -11 10 -5 0
-7 -4 -4 -10z"/>
<path d="M5170 3323 c0 -5 12 -9 27 -10 19 -1 22 1 12 8 -17 11 -39 12 -39 2z"/>
<path d="M8448 3283 c7 -3 16 -2 19 1 4 3 -2 6 -13 5 -11 0 -14 -3 -6 -6z"/>
<path d="M4850 3247 c0 -3 18 -20 40 -37 22 -17 40 -29 40 -27 0 3 -18 20 -40
37 -22 17 -40 29 -40 27z"/>
<path d="M2453 3093 c9 -2 23 -2 30 0 6 3 -1 5 -18 5 -16 0 -22 -2 -12 -5z"/>
<path d="M666 2405 c5 -11 -1 -15 -17 -15 -13 0 -30 4 -37 9 -7 4 -25 6 -40 3
-24 -5 -25 -6 -7 -13 11 -4 52 -7 90 -7 39 0 62 2 53 5 -10 2 -18 11 -18 19 0
8 -7 14 -15 14 -9 0 -12 -6 -9 -15z"/>
<path d="M787 2344 c-13 -13 -7 -24 14 -24 11 0 19 5 17 12 -5 14 -22 21 -31
12z"/>
<path d="M740 2280 c0 -5 9 -10 21 -10 11 0 17 5 14 10 -3 6 -13 10 -21 10 -8
0 -14 -4 -14 -10z"/>
<path d="M7853 2276 c2 -6 22 -11 46 -13 23 -1 40 1 37 6 -8 13 -87 19 -83 7z"/>
<path d="M7760 2250 c0 -5 5 -10 11 -10 5 0 7 5 4 10 -3 6 -8 10 -11 10 -2 0
-4 -4 -4 -10z"/>
<path d="M1023 2164 c-3 -8 -1 -20 4 -25 15 -15 109 -23 117 -10 5 7 -5 11
-31 12 l-38 1 29 12 28 13 -32 7 c-51 10 -70 7 -77 -10z"/>
<path d="M7685 2170 c3 -5 8 -10 11 -10 2 0 4 5 4 10 0 6 -5 10 -11 10 -5 0
-7 -4 -4 -10z"/>
<path d="M7880 2145 c7 -8 23 -14 37 -13 22 2 23 4 7 15 -10 7 -27 13 -37 13
-16 0 -17 -3 -7 -15z"/>
<path d="M5358 2133 c6 -2 18 -2 25 0 6 3 1 5 -13 5 -14 0 -19 -2 -12 -5z"/>
<path d="M7850 2070 c0 -14 15 -19 29 -11 9 6 7 10 -8 14 -12 3 -21 1 -21 -3z"/>
<path d="M4648 2013 c18 -2 45 -2 60 0 15 2 0 4 -33 4 -33 0 -45 -2 -27 -4z"/>
<path d="M5300 1984 c-67 -42 -59 -44 17 -4 64 35 72 40 52 39 -8 -1 -39 -16
-69 -35z"/>
<path d="M5565 2010 c-3 -6 1 -7 9 -4 18 7 21 14 7 14 -6 0 -13 -4 -16 -10z"/>
<path d="M7762 1984 c10 -10 20 -15 24 -12 3 4 -5 12 -18 18 -22 12 -22 12 -6
-6z"/>
<path d="M6005 1967 c-26 -9 -27 -11 -10 -17 16 -6 12 -11 -28 -34 -57 -34
-63 -46 -7 -15 40 23 87 66 79 73 -2 2 -17 -1 -34 -7z"/>
<path d="M7724 1961 c11 -11 23 -21 28 -21 14 0 -1 19 -25 31 -22 12 -22 12
-3 -10z"/>
<path d="M6052 1959 c2 -6 7 -10 11 -10 4 1 16 1 28 1 11 0 17 5 14 10 -8 14
-58 13 -53 -1z"/>
<path d="M7437 1963 c-4 -3 -7 -13 -7 -22 1 -13 3 -13 11 2 11 19 8 33 -4 20z"/>
<path d="M5128 1889 c-43 -21 -78 -41 -78 -44 0 -5 159 72 169 81 14 13 -25
-2 -91 -37z"/>
<path d="M5378 1904 c-38 -20 -36 -28 2 -9 17 9 30 18 30 20 0 7 -1 6 -32 -11z"/>
<path d="M5505 1910 c-3 -5 -2 -10 4 -10 5 0 13 5 16 10 3 6 2 10 -4 10 -5 0
-13 -4 -16 -10z"/>
<path d="M6048 1889 c-21 -11 -38 -21 -38 -24 0 -6 73 25 85 36 15 15 -7 10
-47 -12z"/>
<path d="M5640 1764 c-91 -52 -206 -117 -256 -145 -94 -50 -160 -103 -79 -62
22 11 58 26 80 33 22 7 58 23 80 35 59 34 166 77 173 70 4 -3 0 -11 -8 -16
-12 -8 -9 -9 10 -5 24 5 24 4 6 -9 -29 -22 -11 -18 42 9 48 24 94 66 73 66 -6
0 -19 -9 -28 -20 -18 -21 -39 -28 -27 -9 4 8 -1 9 -15 4 -12 -4 -28 -2 -36 5
-8 6 -20 9 -27 5 -32 -17 44 40 110 81 61 39 81 55 70 54 -2 0 -77 -43 -168
-96z m-50 -59 c0 -2 -10 -10 -22 -16 -21 -11 -22 -11 -9 4 13 16 31 23 31 12z"/>
<path d="M5235 1825 c-22 -13 -36 -25 -31 -25 10 0 76 39 76 46 0 7 -3 5 -45
-21z"/>
<path d="M725 1760 c-3 -5 -1 -10 4 -10 6 0 11 5 11 10 0 6 -2 10 -4 10 -3 0
-8 -4 -11 -10z"/>
<path d="M5455 1723 c-49 -25 -153 -72 -229 -104 -77 -32 -146 -65 -153 -72
-27 -27 42 -10 128 31 46 22 111 51 144 65 51 21 195 103 213 121 15 15 -21 1
-103 -41z"/>
<path d="M5670 1745 c-14 -8 -20 -14 -14 -15 5 0 19 7 30 15 24 18 16 19 -16
0z"/>
<path d="M5718 1662 c-105 -56 -130 -72 -113 -72 20 0 192 90 209 109 24 27
29 29 -96 -37z"/>
<path d="M5437 1550 c-9 -11 -14 -20 -11 -20 13 0 44 21 44 30 0 16 -14 11
-33 -10z"/>
<path d="M5220 1530 c0 -5 5 -10 10 -10 6 0 10 5 10 10 0 6 -4 10 -10 10 -5 0
-10 -4 -10 -10z"/>
<path d="M5103 1512 c-34 -16 -43 -32 -19 -32 16 0 63 36 56 43 -3 3 -20 -2
-37 -11z"/>
<path d="M5450 1520 c-12 -8 -11 -10 8 -10 12 0 22 5 22 10 0 13 -11 13 -30 0z"/>
<path d="M5025 1470 c-3 -5 3 -10 15 -10 12 0 18 5 15 10 -3 6 -10 10 -15 10
-5 0 -12 -4 -15 -10z"/>
<path d="M4575 1400 c-3 -5 1 -10 9 -10 9 0 16 5 16 10 0 6 -4 10 -9 10 -6 0
-13 -4 -16 -10z"/>
<path d="M5175 1364 c-27 -13 -43 -24 -35 -23 8 0 35 11 60 24 58 31 40 31
-25 -1z"/>
<path d="M4509 1365 c0 0 -2 -8 -4 -18 -3 -14 1 -17 13 -11 9 3 27 9 40 11 39
9 34 22 -8 20 -22 -1 -40 -1 -41 -2z"/>
<path d="M5280 1335 c-54 -31 -132 -65 -140 -60 -8 5 -24 -25 -16 -32 5 -5
153 69 181 91 25 20 8 20 -25 1z"/>
<path d="M5088 1323 c-10 -2 -18 -9 -18 -14 0 -6 10 -5 23 2 37 20 36 23 -5
12z"/>
<path d="M4525 1260 c-19 -8 -19 -9 3 -9 12 -1 22 4 22 9 0 6 -1 10 -2 9 -2 0
-12 -4 -23 -9z"/>
<path d="M5300 1259 c0 -5 5 -7 10 -4 6 3 10 8 10 11 0 2 -4 4 -10 4 -5 0 -10
-5 -10 -11z"/>
<path d="M4670 1240 c-19 -11 -31 -19 -27 -20 11 0 67 29 67 35 0 7 -1 7 -40
-15z"/>
<path d="M4895 1240 c-3 -6 1 -7 9 -4 18 7 21 14 7 14 -6 0 -13 -4 -16 -10z"/>
<path d="M5225 1226 c-18 -13 -18 -14 8 -9 15 3 27 9 27 14 0 13 -13 11 -35
-5z"/>
<path d="M5294 1206 c-50 -23 -86 -53 -47 -39 38 13 118 64 101 63 -2 0 -26
-11 -54 -24z"/>
<path d="M4275 1210 c-4 -6 -10 -8 -14 -6 -4 3 -43 -6 -87 -20 -89 -28 -204
-40 -215 -23 -4 7 -12 8 -19 4 -9 -6 -7 -12 10 -25 22 -17 22 -17 -25 -30 -45
-13 -46 -14 -24 -25 16 -9 31 -10 51 -3 16 6 40 8 53 6 15 -3 22 -1 18 5 -4 7
14 8 53 4 53 -6 56 -5 35 7 l-23 13 23 6 c13 4 35 7 48 7 14 0 51 7 83 16 42
12 58 21 54 31 -3 7 1 16 9 19 8 4 15 10 15 15 0 12 -37 11 -45 -1z"/>
<path d="M5027 1196 c-5 -13 -14 -17 -32 -14 -14 3 -60 -7 -103 -22 -79 -28
-209 -100 -182 -100 13 0 13 -2 0 -11 -13 -10 -13 -10 0 -6 46 14 201 72 240
90 25 12 51 22 59 23 8 2 24 13 35 25 12 12 16 19 9 15 -6 -3 -13 -1 -15 6 -3
7 -7 5 -11 -6z"/>
<path d="M4035 1191 c-3 -6 -11 -9 -16 -6 -5 4 -9 1 -9 -4 0 -6 6 -11 14 -11
16 0 31 18 23 26 -3 3 -8 0 -12 -5z"/>
<path d="M4704 1166 c-28 -13 -55 -29 -59 -36 -4 -6 8 -4 26 6 19 9 47 20 63
23 16 4 31 12 34 19 5 17 -6 15 -64 -12z"/>
<path d="M3735 1140 c-3 -5 1 -10 10 -10 9 0 13 5 10 10 -3 6 -8 10 -10 10 -2
0 -7 -4 -10 -10z"/>
<path d="M4735 1140 c-3 -5 -2 -10 4 -10 5 0 13 5 16 10 3 6 2 10 -4 10 -5 0
-13 -4 -16 -10z"/>
<path d="M4365 1120 c-3 -5 -1 -10 4 -10 6 0 11 5 11 10 0 6 -2 10 -4 10 -3 0
-8 -4 -11 -10z"/>
<path d="M4655 1110 c-3 -5 -1 -10 4 -10 6 0 11 5 11 10 0 6 -2 10 -4 10 -3 0
-8 -4 -11 -10z"/>
<path d="M6659 929 c-195 -172 -669 -641 -669 -661 0 -6 109 97 243 228 234
231 459 443 582 551 33 29 55 52 49 53 -7 0 -99 -77 -205 -171z"/>
<path d="M4540 1080 c-9 -6 -10 -10 -3 -10 6 0 15 5 18 10 8 12 4 12 -15 0z"/>
<path d="M3962 1069 c-13 -5 -20 -13 -17 -19 7 -11 39 2 50 20 7 12 -2 12 -33
-1z"/>
<path d="M3662 1048 c7 -19 51 -21 89 -4 l34 14 -63 1 c-47 1 -63 -2 -60 -11z"/>
<path d="M4635 1030 c3 -5 14 -10 23 -10 15 0 15 2 2 10 -20 13 -33 13 -25 0z"/>
<path d="M4802 998 c-64 -24 -86 -28 -92 -19 -6 10 -15 9 -41 -4 -18 -10 -40
-25 -48 -35 -9 -10 -54 -32 -101 -51 -81 -31 -282 -125 -250 -116 9 3 52 15
95 27 91 26 201 64 262 91 23 11 46 19 51 19 5 0 40 14 78 32 38 17 72 32 76
32 7 1 26 14 66 43 29 21 -6 14 -96 -19z"/>
<path d="M4935 1020 c-3 -6 1 -7 9 -4 18 7 21 14 7 14 -6 0 -13 -4 -16 -10z"/>
<path d="M4412 1000 c-12 -5 -30 -7 -40 -4 -14 5 -15 4 -2 -5 20 -14 33 -14
56 4 22 16 19 18 -14 5z"/>
<path d="M3845 989 c-11 -17 2 -22 40 -15 19 4 33 11 30 17 -8 12 -62 12 -70
-2z"/>
<path d="M4540 977 c-29 -14 -39 -23 -28 -25 9 -2 30 4 46 12 16 8 32 13 35 9
8 -7 57 5 57 15 0 16 -68 9 -110 -11z"/>
<path d="M5225 980 c-15 -17 -16 -20 -3 -20 9 0 19 7 22 16 10 25 1 27 -19 4z"/>
<path d="M4450 940 c-12 -8 -11 -10 8 -10 12 0 22 5 22 10 0 13 -11 13 -30 0z"/>
<path d="M4775 905 c-66 -25 -138 -50 -160 -56 -22 -7 -35 -14 -29 -16 11 -4
223 68 294 100 69 30 13 15 -105 -28z"/>
<path d="M3733 933 c9 -2 23 -2 30 0 6 3 -1 5 -18 5 -16 0 -22 -2 -12 -5z"/>
<path d="M4388 913 c7 -3 16 -2 19 1 4 3 -2 6 -13 5 -11 0 -14 -3 -6 -6z"/>
<path d="M6321 898 c-14 -23 -14 -23 8 -4 22 20 25 26 13 26 -4 0 -13 -10 -21
-22z"/>
<path d="M4305 890 c-3 -5 -1 -10 4 -10 6 0 11 5 11 10 0 6 -2 10 -4 10 -3 0
-8 -4 -11 -10z"/>
<path d="M4042 790 c-18 -4 -36 -11 -40 -15 -8 -9 74 4 103 16 18 7 17 8 -5 7
-14 0 -40 -4 -58 -8z"/>
<path d="M3838 783 c6 -2 18 -2 25 0 6 3 1 5 -13 5 -14 0 -19 -2 -12 -5z"/>
<path d="M5070 783 c-66 -24 -102 -45 -93 -54 12 -12 42 0 92 36 33 24 33 30
1 18z"/>
<path d="M4300 770 c-12 -8 -10 -10 10 -10 14 0 32 5 40 10 12 8 10 10 -10 10
-14 0 -32 -5 -40 -10z"/>
<path d="M4750 760 c-13 -8 -12 -10 3 -10 9 0 17 5 17 10 0 12 -1 12 -20 0z"/>
<path d="M4885 758 c-16 -6 -35 -15 -42 -20 -7 -5 -43 -18 -80 -28 -77 -21
-219 -72 -278 -100 -22 -10 -52 -22 -67 -25 -32 -8 -28 -25 6 -25 31 0 202 61
279 100 34 17 96 45 137 62 96 39 128 65 45 36z"/>
<path d="M6129 753 c-10 -11 -10 -14 -1 -9 6 4 12 2 12 -4 0 -6 -7 -13 -15
-16 -8 -4 -15 -11 -15 -18 1 -13 50 41 50 55 0 14 -16 11 -31 -8z"/>
<path d="M3820 744 l-45 -12 40 -1 c55 -1 91 9 73 20 -7 5 -15 8 -18 8 -3 -1
-25 -7 -50 -15z"/>
<path d="M5148 733 c6 -2 18 -2 25 0 6 3 1 5 -13 5 -14 0 -19 -2 -12 -5z"/>
<path d="M4148 723 c-10 -2 -18 -9 -18 -14 0 -6 8 -5 20 1 11 6 20 13 20 15 0
3 -1 4 -2 4 -2 -1 -11 -3 -20 -6z"/>
<path d="M4870 669 c0 -5 5 -7 10 -4 6 3 10 8 10 11 0 2 -4 4 -10 4 -5 0 -10
-5 -10 -11z"/>
<path d="M4060 650 c-12 -8 -11 -10 7 -10 12 0 25 5 28 10 8 13 -15 13 -35 0z"/>
<path d="M4830 596 c-55 -24 -85 -55 -39 -41 24 8 99 54 99 61 0 5 1 6 -60
-20z"/>
<path d="M4030 600 c0 -5 7 -7 15 -4 8 4 15 8 15 10 0 2 -7 4 -15 4 -8 0 -15
-4 -15 -10z"/>
<path d="M4200 560 c-9 -6 -10 -10 -3 -10 6 0 15 5 18 10 8 12 4 12 -15 0z"/>
<path d="M4215 528 c-16 -6 -91 -11 -165 -10 -98 0 -126 -3 -102 -10 46 -13
42 -33 -5 -23 -56 12 -102 10 -116 -4 -16 -16 4 -28 60 -37 31 -4 83 5 210 36
171 43 221 60 173 59 -14 0 -38 -5 -55 -11z"/>
<path d="M4586 521 c-3 -5 5 -8 19 -8 14 0 22 3 19 8 -3 5 -11 9 -19 9 -8 0
-16 -4 -19 -9z"/>
<path d="M3743 483 c9 -2 23 -2 30 0 6 3 -1 5 -18 5 -16 0 -22 -2 -12 -5z"/>
<path d="M3640 452 c0 -14 11 -21 26 -15 8 3 11 9 8 14 -7 11 -34 12 -34 1z"/>
<path d="M5857 413 c-10 -9 -9 -23 1 -23 5 0 9 7 9 15 0 17 -1 18 -10 8z"/>
</g>
</svg>
